<svg width="24" height="24" viewBox="0 0 24 24" fill="none" xmlns="http://www.w3.org/2000/svg">
<g clip-path="url(#clip0_8083_2462)">
<path d="M19.7344 15.1246C19.3136 15.344 18.8355 15.4688 18.3281 15.4688C16.6454 15.4688 15.2812 14.1046 15.2812 12.4219C15.2812 10.7392 16.6454 9.375 18.3281 9.375C18.8355 9.375 19.3136 9.49973 19.7344 9.71916C18.7597 10.2274 18.0938 11.2466 18.0938 12.4219C18.0938 13.5972 18.7597 14.6164 19.7344 15.1246ZM3.75 18.3769V5.62308C3.75 3.0353 5.84269 0.9375 8.42419 0.9375H5.57812C2.98927 0.9375 0.890625 3.03614 0.890625 5.625V18.375C0.890625 20.9638 2.98927 23.0625 5.57812 23.0625H8.42419C5.84269 23.0625 3.75 20.9647 3.75 18.3769Z" fill="#FCE4CF"/>
<path d="M11.4375 5.90625C11.4375 6.55345 10.9128 7.07812 10.2656 7.07812C9.61842 7.07812 9.09375 6.55345 9.09375 5.90625C9.09375 5.25905 9.61842 4.73438 10.2656 4.73438C10.9128 4.73438 11.4375 5.25905 11.4375 5.90625ZM22.3125 12.4219C22.3125 10.2249 20.5251 8.4375 18.3281 8.4375C16.1311 8.4375 14.3438 10.2249 14.3438 12.4219C14.3438 14.6189 16.1311 16.4062 18.3281 16.4062C20.5251 16.4062 22.3125 14.6189 22.3125 12.4219ZM20.4375 12.4219C20.4375 13.585 19.4912 14.5312 18.3281 14.5312C17.165 14.5312 16.2188 13.585 16.2188 12.4219C16.2188 11.2588 17.165 10.3125 18.3281 10.3125C19.4912 10.3125 20.4375 11.2588 20.4375 12.4219ZM9.9375 24H5.62402C2.52295 24 0 21.477 0 18.376V5.62402C0 2.52295 2.52295 0 5.62402 0H14.2509C17.353 0 19.8759 2.52295 19.8759 5.62402C19.8759 6.1418 19.4562 6.56152 18.9384 6.56152C18.4207 6.56152 18.0009 6.1418 18.0009 5.62402C18.0009 3.55678 16.3192 1.875 14.2519 1.875H5.62402C3.55683 1.875 1.875 3.55683 1.875 5.62402V18.3759C1.875 20.4432 3.55683 22.125 5.62402 22.125H9.9375C10.4553 22.125 10.875 22.5447 10.875 23.0625C10.875 23.5803 10.4553 24 9.9375 24ZM15.4688 5.90625C15.4688 6.55345 14.9441 7.07812 14.2969 7.07812C13.6497 7.07812 13.125 6.55345 13.125 5.90625C13.125 5.25905 13.6497 4.73438 14.2969 4.73438C14.9441 4.73438 15.4688 5.25905 15.4688 5.90625ZM7.40625 9.9375C7.40625 10.5847 6.88158 11.1094 6.23438 11.1094C5.58717 11.1094 5.0625 10.5847 5.0625 9.9375C5.0625 9.2903 5.58717 8.76562 6.23438 8.76562C6.88158 8.76562 7.40625 9.2903 7.40625 9.9375ZM7.40625 13.9688C7.40625 14.616 6.88158 15.1406 6.23438 15.1406C5.58717 15.1406 5.0625 14.616 5.0625 13.9688C5.0625 13.3215 5.58717 12.7969 6.23438 12.7969C6.88158 12.7969 7.40625 13.3215 7.40625 13.9688ZM7.40625 18C7.40625 18.6472 6.88158 19.1719 6.23438 19.1719C5.58717 19.1719 5.0625 18.6472 5.0625 18C5.0625 17.3528 5.58717 16.8281 6.23438 16.8281C6.88158 16.8281 7.40625 17.3528 7.40625 18ZM11.4375 9.9375C11.4375 10.5847 10.9128 11.1094 10.2656 11.1094C9.61842 11.1094 9.09375 10.5847 9.09375 9.9375C9.09375 9.2903 9.61842 8.76562 10.2656 8.76562C10.9128 8.76562 11.4375 9.2903 11.4375 9.9375ZM11.4375 13.9688C11.4375 14.616 10.9128 15.1406 10.2656 15.1406C9.61842 15.1406 9.09375 14.616 9.09375 13.9688C9.09375 13.3215 9.61842 12.7969 10.2656 12.7969C10.9128 12.7969 11.4375 13.3215 11.4375 13.9688ZM11.4375 18C11.4375 18.6472 10.9128 19.1719 10.2656 19.1719C9.61842 19.1719 9.09375 18.6472 9.09375 18C9.09375 17.3528 9.61842 16.8281 10.2656 16.8281C10.9128 16.8281 11.4375 17.3528 11.4375 18Z" fill="#F2994A"/>
<path d="M23.0625 24C22.5447 24 22.125 23.5803 22.125 23.0625C22.125 21.2015 20.621 19.6875 18.7723 19.6875H17.9778C16.129 19.6875 14.625 21.2015 14.625 23.0625C14.625 23.5803 14.2053 24 13.6875 24C13.1697 24 12.75 23.5803 12.75 23.0625C12.75 20.1676 15.0952 17.8125 17.9777 17.8125H18.7722C21.6548 17.8125 24 20.1676 24 23.0625C24 23.5803 23.5803 24 23.0625 24ZM6.23438 4.73438C5.58717 4.73438 5.0625 5.25905 5.0625 5.90625C5.0625 6.55345 5.58717 7.07812 6.23438 7.07812C6.88158 7.07812 7.40625 6.55345 7.40625 5.90625C7.40625 5.25905 6.88158 4.73438 6.23438 4.73438Z" fill="#FF5B5B"/>
</g>
<defs>
<clipPath id="clip0_8083_2462">
<rect width="24" height="24" fill="white"/>
</clipPath>
</defs>
</svg>
