<svg width="252" height="234" viewBox="0 0 252 234" fill="none" xmlns="http://www.w3.org/2000/svg">
<path d="M229.946 222.487H119.789V34.117C119.789 30.3687 122.808 27.3472 126.554 27.3472H223.142C226.888 27.3472 229.907 30.3687 229.907 34.117V222.487H229.946Z" fill="#E6E2F0"/>
<path d="M219.473 118.109H130.033C127.625 118.109 125.675 116.159 125.675 113.749V96.3844C125.675 93.9748 127.625 92.0242 130.033 92.0242H219.473C221.881 92.0242 223.83 93.9748 223.83 96.3844V113.711C223.83 116.159 221.881 118.109 219.473 118.109Z" fill="#E6E2F0"/>
<path d="M216.568 72.4795H207.433C205.789 72.4795 204.451 71.1408 204.451 69.4962V66.8571C204.451 65.2124 205.789 63.8738 207.433 63.8738H216.568C218.211 63.8738 219.549 65.2124 219.549 66.8571V69.4962C219.511 71.1408 218.211 72.4795 216.568 72.4795Z" fill="white"/>
<path d="M216.262 134.135H207.127C205.484 134.135 204.146 132.796 204.146 131.152V128.513C204.146 126.868 205.484 125.529 207.127 125.529H216.262C217.906 125.529 219.244 126.868 219.244 128.513V131.152C219.244 132.796 217.906 134.135 216.262 134.135Z" fill="white"/>
<path d="M209.075 68.3031C209.075 68.1733 209.03 68.064 208.938 67.9751C208.848 67.8863 208.695 67.8059 208.479 67.7339C208.178 67.6422 207.959 67.523 207.821 67.3763C207.684 67.2282 207.616 67.0406 207.616 66.8135C207.616 66.5822 207.683 66.3925 207.817 66.2443C207.952 66.0962 208.138 66.0081 208.373 65.9799V65.5165H208.688V65.982C208.925 66.0144 209.109 66.1139 209.24 66.2803C209.373 66.4468 209.439 66.6746 209.439 66.9637H209.05C209.05 66.7649 209.003 66.6069 208.908 66.4898C208.814 66.3727 208.686 66.3142 208.525 66.3142C208.358 66.3142 208.229 66.3579 208.14 66.4454C208.051 66.5314 208.007 66.652 208.007 66.8072C208.007 66.9511 208.054 67.066 208.147 67.1521C208.241 67.2367 208.396 67.3143 208.61 67.3848C208.826 67.4539 208.994 67.5308 209.113 67.6154C209.235 67.6987 209.324 67.796 209.38 67.9074C209.438 68.0189 209.467 68.1493 209.467 68.2989C209.467 68.5373 209.395 68.7291 209.251 68.8744C209.108 69.0197 208.908 69.1057 208.65 69.1325V69.5367H208.337V69.1325C208.075 69.1086 207.869 69.0155 207.719 68.8532C207.571 68.6896 207.497 68.4681 207.497 68.1888H207.889C207.889 68.3849 207.94 68.5359 208.043 68.6416C208.146 68.7474 208.292 68.8003 208.481 68.8003C208.666 68.8003 208.811 68.7559 208.917 68.667C209.022 68.5782 209.075 68.4569 209.075 68.3031Z" fill="#FE670E"/>
<path d="M213.046 69.0966H211.028V68.8151L212.094 67.6303C212.252 67.4511 212.361 67.3058 212.42 67.1944C212.48 67.0815 212.511 66.9652 212.511 66.8453C212.511 66.6844 212.462 66.5526 212.365 66.4496C212.268 66.3466 212.138 66.2951 211.976 66.2951C211.781 66.2951 211.629 66.3508 211.521 66.4623C211.414 66.5723 211.36 66.7261 211.36 66.9235H210.969C210.969 66.64 211.06 66.4108 211.242 66.2359C211.425 66.061 211.67 65.9735 211.976 65.9735C212.262 65.9735 212.488 66.049 212.655 66.1999C212.821 66.3494 212.904 66.549 212.904 66.7987C212.904 67.102 212.711 67.4631 212.325 67.882L211.5 68.7771H213.046V69.0966Z" fill="#FE670E"/>
<path d="M215.392 67.7826C215.392 68.241 215.314 68.5817 215.157 68.8046C215.001 69.0274 214.756 69.1389 214.423 69.1389C214.095 69.1389 213.851 69.0303 213.693 68.813C213.535 68.5944 213.454 68.2685 213.448 67.8355V67.3129C213.448 66.8601 213.526 66.5236 213.683 66.3036C213.839 66.0835 214.085 65.9735 214.419 65.9735C214.75 65.9735 214.994 66.08 215.151 66.293C215.307 66.5046 215.388 66.8319 215.392 67.2748V67.7826ZM215.001 67.2473C215.001 66.9158 214.954 66.6746 214.861 66.5236C214.768 66.3713 214.621 66.2951 214.419 66.2951C214.219 66.2951 214.073 66.3706 213.981 66.5215C213.889 66.6725 213.842 66.9045 213.839 67.2177V67.844C213.839 68.1769 213.887 68.423 213.983 68.5824C214.08 68.7404 214.227 68.8194 214.423 68.8194C214.616 68.8194 214.759 68.7446 214.853 68.5951C214.947 68.4456 214.996 68.21 215.001 67.8884V67.2473Z" fill="#FE670E"/>
<path d="M218.938 212.811H127.395V157.619C127.395 155.707 128.962 154.139 130.873 154.139H217.523C220.925 154.139 223.677 156.893 223.677 160.297V208.068C223.677 210.707 221.575 212.811 218.938 212.811Z" fill="#2AC769"/>
<path d="M219.473 115.814H130.033C127.625 115.814 125.675 113.864 125.675 111.454V94.0895C125.675 91.6799 127.625 89.7292 130.033 89.7292H219.473C221.881 89.7292 223.83 91.6799 223.83 94.0895V111.416C223.83 113.864 221.881 115.814 219.473 115.814Z" fill="white"/>
<path opacity="0.31" d="M192.144 182.136H192.985C193.138 182.136 193.252 182.289 193.252 182.404V183.245C193.252 183.398 193.138 183.513 192.985 183.513H192.144C191.991 183.513 191.876 183.36 191.876 183.245V182.404C191.876 182.251 191.991 182.136 192.144 182.136Z" fill="white"/>
<path opacity="0.31" d="M197.686 182.136H198.527C198.68 182.136 198.794 182.289 198.794 182.404V183.245C198.794 183.398 198.68 183.513 198.527 183.513H197.686C197.533 183.513 197.419 183.36 197.419 183.245V182.404C197.419 182.251 197.533 182.136 197.686 182.136Z" fill="white"/>
<path opacity="0.31" d="M203.19 182.136H204.031C204.184 182.136 204.299 182.289 204.299 182.404V183.245C204.299 183.398 204.184 183.513 204.031 183.513H203.19C203.037 183.513 202.923 183.36 202.923 183.245V182.404C202.923 182.251 203.037 182.136 203.19 182.136Z" fill="white"/>
<path opacity="0.31" d="M208.732 182.136H209.573C209.726 182.136 209.841 182.289 209.841 182.404V183.245C209.841 183.398 209.726 183.513 209.573 183.513H208.732C208.579 183.513 208.465 183.36 208.465 183.245V182.404C208.465 182.251 208.579 182.136 208.732 182.136Z" fill="white"/>
<path opacity="0.31" d="M214.275 182.136H215.115C215.268 182.136 215.383 182.289 215.383 182.404V183.245C215.383 183.398 215.268 183.513 215.115 183.513H214.275C214.122 183.513 214.007 183.36 214.007 183.245V182.404C213.969 182.251 214.083 182.136 214.275 182.136Z" fill="white"/>
<path opacity="0.31" d="M219.779 182.136H220.619C220.772 182.136 220.887 182.289 220.887 182.404V183.245C220.887 183.398 220.772 183.513 220.619 183.513H219.779C219.626 183.513 219.511 183.36 219.511 183.245V182.404C219.511 182.251 219.626 182.136 219.779 182.136Z" fill="white"/>
<path opacity="0.31" d="M192.144 187.644H192.985C193.138 187.644 193.252 187.797 193.252 187.911V188.753C193.252 188.906 193.138 189.021 192.985 189.021H192.144C191.991 189.021 191.876 188.868 191.876 188.753V187.911C191.876 187.797 191.991 187.644 192.144 187.644Z" fill="white"/>
<path opacity="0.31" d="M197.686 187.644H198.527C198.68 187.644 198.794 187.797 198.794 187.911V188.753C198.794 188.906 198.68 189.021 198.527 189.021H197.686C197.533 189.021 197.419 188.868 197.419 188.753V187.911C197.419 187.797 197.533 187.644 197.686 187.644Z" fill="white"/>
<path opacity="0.31" d="M203.19 187.644H204.031C204.184 187.644 204.299 187.797 204.299 187.911V188.753C204.299 188.906 204.184 189.021 204.031 189.021H203.19C203.037 189.021 202.923 188.868 202.923 188.753V187.911C202.923 187.797 203.037 187.644 203.19 187.644Z" fill="white"/>
<path opacity="0.31" d="M208.732 187.644H209.573C209.726 187.644 209.841 187.797 209.841 187.911V188.753C209.841 188.906 209.726 189.021 209.573 189.021H208.732C208.579 189.021 208.465 188.868 208.465 188.753V187.911C208.465 187.797 208.579 187.644 208.732 187.644Z" fill="white"/>
<path opacity="0.31" d="M214.275 187.644H215.115C215.268 187.644 215.383 187.797 215.383 187.911V188.753C215.383 188.906 215.268 189.021 215.115 189.021H214.275C214.122 189.021 214.007 188.868 214.007 188.753V187.911C213.969 187.797 214.083 187.644 214.275 187.644Z" fill="white"/>
<path opacity="0.31" d="M219.779 187.644H220.619C220.772 187.644 220.887 187.797 220.887 187.911V188.753C220.887 188.906 220.772 189.021 220.619 189.021H219.779C219.626 189.021 219.511 188.868 219.511 188.753V187.911C219.511 187.797 219.626 187.644 219.779 187.644Z" fill="white"/>
<path opacity="0.31" d="M192.144 193.19H192.985C193.138 193.19 193.252 193.343 193.252 193.457V194.299C193.252 194.452 193.138 194.567 192.985 194.567H192.144C191.991 194.567 191.876 194.414 191.876 194.299V193.457C191.876 193.304 191.991 193.19 192.144 193.19Z" fill="white"/>
<path opacity="0.31" d="M197.686 193.19H198.527C198.68 193.19 198.794 193.343 198.794 193.457V194.299C198.794 194.452 198.68 194.567 198.527 194.567H197.686C197.533 194.567 197.419 194.414 197.419 194.299V193.457C197.419 193.304 197.533 193.19 197.686 193.19Z" fill="white"/>
<path opacity="0.31" d="M203.19 193.19H204.031C204.184 193.19 204.299 193.343 204.299 193.457V194.299C204.299 194.452 204.184 194.567 204.031 194.567H203.19C203.037 194.567 202.923 194.414 202.923 194.299V193.457C202.923 193.304 203.037 193.19 203.19 193.19Z" fill="white"/>
<path opacity="0.31" d="M208.732 193.19H209.573C209.726 193.19 209.841 193.343 209.841 193.457V194.299C209.841 194.452 209.726 194.567 209.573 194.567H208.732C208.579 194.567 208.465 194.414 208.465 194.299V193.457C208.465 193.304 208.579 193.19 208.732 193.19Z" fill="white"/>
<path opacity="0.31" d="M214.275 193.19H215.115C215.268 193.19 215.383 193.343 215.383 193.457V194.299C215.383 194.452 215.268 194.567 215.115 194.567H214.275C214.122 194.567 214.007 194.414 214.007 194.299V193.457C213.969 193.304 214.083 193.19 214.275 193.19Z" fill="white"/>
<path opacity="0.31" d="M219.779 193.19H220.619C220.772 193.19 220.887 193.343 220.887 193.457V194.299C220.887 194.452 220.772 194.567 220.619 194.567H219.779C219.626 194.567 219.511 194.414 219.511 194.299V193.457C219.511 193.304 219.626 193.19 219.779 193.19Z" fill="white"/>
<path opacity="0.31" d="M192.144 198.697H192.985C193.138 198.697 193.252 198.85 193.252 198.965V199.806C193.252 199.959 193.138 200.074 192.985 200.074H192.144C191.991 200.074 191.876 199.921 191.876 199.806V198.965C191.876 198.85 191.991 198.697 192.144 198.697Z" fill="white"/>
<path opacity="0.31" d="M197.686 198.697H198.527C198.68 198.697 198.794 198.85 198.794 198.965V199.806C198.794 199.959 198.68 200.074 198.527 200.074H197.686C197.533 200.074 197.419 199.921 197.419 199.806V198.965C197.419 198.85 197.533 198.697 197.686 198.697Z" fill="white"/>
<path opacity="0.31" d="M203.19 198.697H204.031C204.184 198.697 204.299 198.85 204.299 198.965V199.806C204.299 199.959 204.184 200.074 204.031 200.074H203.19C203.037 200.074 202.923 199.921 202.923 199.806V198.965C202.923 198.85 203.037 198.697 203.19 198.697Z" fill="white"/>
<path opacity="0.31" d="M208.732 198.697H209.573C209.726 198.697 209.841 198.85 209.841 198.965V199.806C209.841 199.959 209.726 200.074 209.573 200.074H208.732C208.579 200.074 208.465 199.921 208.465 199.806V198.965C208.465 198.85 208.579 198.697 208.732 198.697Z" fill="white"/>
<path opacity="0.31" d="M214.275 198.697H215.115C215.268 198.697 215.383 198.85 215.383 198.965V199.806C215.383 199.959 215.268 200.074 215.115 200.074H214.275C214.122 200.074 214.007 199.921 214.007 199.806V198.965C213.969 198.85 214.083 198.697 214.275 198.697Z" fill="white"/>
<path opacity="0.31" d="M219.779 198.697H220.619C220.772 198.697 220.887 198.85 220.887 198.965V199.806C220.887 199.959 220.772 200.074 220.619 200.074H219.779C219.626 200.074 219.511 199.921 219.511 199.806V198.965C219.511 198.85 219.626 198.697 219.779 198.697Z" fill="white"/>
<path opacity="0.31" d="M192.144 204.243H192.985C193.138 204.243 193.252 204.396 193.252 204.511V205.352C193.252 205.505 193.138 205.62 192.985 205.62H192.144C191.991 205.62 191.876 205.467 191.876 205.352V204.511C191.876 204.358 191.991 204.243 192.144 204.243Z" fill="white"/>
<path opacity="0.31" d="M197.686 204.243H198.527C198.68 204.243 198.794 204.396 198.794 204.511V205.352C198.794 205.505 198.68 205.62 198.527 205.62H197.686C197.533 205.62 197.419 205.467 197.419 205.352V204.511C197.419 204.358 197.533 204.243 197.686 204.243Z" fill="white"/>
<path opacity="0.31" d="M203.19 204.243H204.031C204.184 204.243 204.299 204.396 204.299 204.511V205.352C204.299 205.505 204.184 205.62 204.031 205.62H203.19C203.037 205.62 202.923 205.467 202.923 205.352V204.511C202.923 204.358 203.037 204.243 203.19 204.243Z" fill="white"/>
<path opacity="0.31" d="M208.732 204.243H209.573C209.726 204.243 209.841 204.396 209.841 204.511V205.352C209.841 205.505 209.726 205.62 209.573 205.62H208.732C208.579 205.62 208.465 205.467 208.465 205.352V204.511C208.465 204.358 208.579 204.243 208.732 204.243Z" fill="white"/>
<path opacity="0.31" d="M214.275 204.243H215.115C215.268 204.243 215.383 204.396 215.383 204.511V205.352C215.383 205.505 215.268 205.62 215.115 205.62H214.275C214.122 205.62 214.007 205.467 214.007 205.352V204.511C213.969 204.358 214.083 204.243 214.275 204.243Z" fill="white"/>
<path opacity="0.31" d="M219.779 204.243H220.619C220.772 204.243 220.887 204.396 220.887 204.511V205.352C220.887 205.505 220.772 205.62 220.619 205.62H219.779C219.626 205.62 219.511 205.467 219.511 205.352V204.511C219.511 204.358 219.626 204.243 219.779 204.243Z" fill="white"/>
<path opacity="0.31" d="M192.144 209.751H192.985C193.138 209.751 193.252 209.904 193.252 210.019V210.86C193.252 211.013 193.138 211.128 192.985 211.128H192.144C191.991 211.128 191.876 210.975 191.876 210.86V210.019C191.876 209.904 191.991 209.751 192.144 209.751Z" fill="white"/>
<path opacity="0.31" d="M197.686 209.751H198.527C198.68 209.751 198.794 209.904 198.794 210.019V210.86C198.794 211.013 198.68 211.128 198.527 211.128H197.686C197.533 211.128 197.419 210.975 197.419 210.86V210.019C197.419 209.904 197.533 209.751 197.686 209.751Z" fill="white"/>
<path opacity="0.31" d="M203.19 209.751H204.031C204.184 209.751 204.299 209.904 204.299 210.019V210.86C204.299 211.013 204.184 211.128 204.031 211.128H203.19C203.037 211.128 202.923 210.975 202.923 210.86V210.019C202.923 209.904 203.037 209.751 203.19 209.751Z" fill="white"/>
<path opacity="0.31" d="M208.732 209.751H209.573C209.726 209.751 209.841 209.904 209.841 210.019V210.86C209.841 211.013 209.726 211.128 209.573 211.128H208.732C208.579 211.128 208.465 210.975 208.465 210.86V210.019C208.465 209.904 208.579 209.751 208.732 209.751Z" fill="white"/>
<path opacity="0.31" d="M214.275 209.751H215.115C215.268 209.751 215.383 209.904 215.383 210.019V210.86C215.383 211.013 215.268 211.128 215.115 211.128H214.275C214.122 211.128 214.007 210.975 214.007 210.86V210.019C213.969 209.904 214.083 209.751 214.275 209.751Z" fill="white"/>
<path opacity="0.31" d="M219.779 209.751H220.619C220.772 209.751 220.887 209.904 220.887 210.019V210.86C220.887 211.013 220.772 211.128 220.619 211.128H219.779C219.626 211.128 219.511 210.975 219.511 210.86V210.019C219.511 209.904 219.626 209.751 219.779 209.751Z" fill="white"/>
<path d="M189.889 203.67H160.381C157.132 203.67 154.495 201.03 154.495 197.779V193.878C154.495 190.627 157.132 187.988 160.381 187.988H189.889C193.137 187.988 195.775 190.627 195.775 193.878V197.779C195.775 201.03 193.137 203.67 189.889 203.67Z" fill="#F6F2FF"/>
<path d="M216.568 103.307H207.433C205.789 103.307 204.451 101.969 204.451 100.324V97.6849C204.451 96.0402 205.789 94.7015 207.433 94.7015H216.568C218.211 94.7015 219.549 96.0402 219.549 97.6849V100.324C219.511 101.969 218.211 103.307 216.568 103.307Z" fill="#FFDE8D"/>
<path d="M209.054 99.4183C209.054 99.2886 209.008 99.1792 208.916 99.0904C208.826 99.0015 208.673 98.9211 208.457 98.8492C208.157 98.7575 207.937 98.6383 207.799 98.4916C207.662 98.3435 207.594 98.1559 207.594 97.9288C207.594 97.6974 207.661 97.5077 207.795 97.3596C207.93 97.2115 208.116 97.1233 208.351 97.0951V96.6317H208.667V97.0972C208.903 97.1297 209.088 97.2291 209.219 97.3955C209.351 97.562 209.418 97.7898 209.418 98.079H209.028C209.028 97.8801 208.981 97.7221 208.887 97.605C208.792 97.4879 208.664 97.4294 208.504 97.4294C208.336 97.4294 208.208 97.4731 208.119 97.5606C208.03 97.6466 207.985 97.7672 207.985 97.9224C207.985 98.0663 208.032 98.1812 208.125 98.2673C208.22 98.3519 208.374 98.4295 208.588 98.5C208.804 98.5692 208.972 98.646 209.092 98.7307C209.213 98.8139 209.302 98.9112 209.358 99.0227C209.416 99.1341 209.445 99.2646 209.445 99.4141C209.445 99.6525 209.373 99.8443 209.229 99.9896C209.087 100.135 208.887 100.221 208.628 100.248V100.652H208.315V100.248C208.053 100.224 207.847 100.131 207.698 99.9685C207.55 99.8048 207.476 99.5834 207.476 99.3041H207.867C207.867 99.5001 207.918 99.6511 208.021 99.7569C208.124 99.8627 208.27 99.9156 208.459 99.9156C208.644 99.9156 208.789 99.8711 208.895 99.7823C209.001 99.6934 209.054 99.5721 209.054 99.4183Z" fill="#FE670E"/>
<path d="M213.024 100.212H211.006V99.9304L212.072 98.7455C212.23 98.5663 212.339 98.421 212.398 98.3096C212.459 98.1968 212.489 98.0804 212.489 97.9605C212.489 97.7997 212.44 97.6678 212.343 97.5648C212.246 97.4618 212.116 97.4104 211.954 97.4104C211.759 97.4104 211.608 97.4661 211.499 97.5775C211.392 97.6875 211.338 97.8413 211.338 98.0388H210.947C210.947 97.7552 211.038 97.526 211.22 97.3511C211.403 97.1762 211.648 97.0887 211.954 97.0887C212.24 97.0887 212.467 97.1642 212.633 97.3151C212.799 97.4647 212.883 97.6643 212.883 97.9139C212.883 98.2172 212.689 98.5783 212.303 98.9973L211.478 99.8923H213.024V100.212Z" fill="#FE670E"/>
<path d="M215.307 97.9351C215.307 98.0889 215.266 98.2257 215.184 98.3456C215.104 98.4655 214.994 98.5593 214.856 98.627C215.017 98.6961 215.144 98.797 215.237 98.9296C215.332 99.0622 215.379 99.2124 215.379 99.3802C215.379 99.6468 215.289 99.8591 215.108 100.017C214.929 100.175 214.693 100.254 214.399 100.254C214.103 100.254 213.866 100.175 213.686 100.017C213.509 99.8577 213.42 99.6454 213.42 99.3802C213.42 99.2138 213.465 99.0636 213.555 98.9296C213.647 98.7956 213.773 98.694 213.934 98.6249C213.797 98.5572 213.689 98.4634 213.61 98.3435C213.531 98.2236 213.492 98.0874 213.492 97.9351C213.492 97.6756 213.575 97.4696 213.741 97.3173C213.908 97.1649 214.127 97.0887 214.399 97.0887C214.67 97.0887 214.889 97.1649 215.055 97.3173C215.223 97.4696 215.307 97.6756 215.307 97.9351ZM214.987 99.3718C214.987 99.1997 214.932 99.0593 214.822 98.9507C214.714 98.8421 214.571 98.7878 214.395 98.7878C214.219 98.7878 214.077 98.8414 213.97 98.9486C213.864 99.0558 213.811 99.1969 213.811 99.3718C213.811 99.5467 213.863 99.6842 213.966 99.7844C214.07 99.8845 214.215 99.9346 214.399 99.9346C214.583 99.9346 214.727 99.8845 214.831 99.7844C214.935 99.6828 214.987 99.5453 214.987 99.3718ZM214.399 97.4104C214.246 97.4104 214.121 97.4583 214.025 97.5542C213.93 97.6487 213.883 97.7778 213.883 97.9414C213.883 98.098 213.93 98.225 214.023 98.3223C214.117 98.4182 214.243 98.4662 214.399 98.4662C214.556 98.4662 214.681 98.4182 214.774 98.3223C214.868 98.225 214.915 98.098 214.915 97.9414C214.915 97.7849 214.867 97.6572 214.77 97.5585C214.672 97.4597 214.549 97.4104 214.399 97.4104Z" fill="#FE670E"/>
<path d="M208.246 130.332C208.246 130.202 208.2 130.092 208.109 130.004C208.018 129.915 207.865 129.834 207.65 129.762C207.349 129.671 207.13 129.552 206.992 129.405C206.855 129.257 206.786 129.069 206.786 128.842C206.786 128.611 206.853 128.421 206.987 128.273C207.123 128.125 207.308 128.037 207.544 128.008V127.545H207.859V128.01C208.096 128.043 208.28 128.142 208.411 128.309C208.544 128.475 208.61 128.703 208.61 128.992H208.221C208.221 128.793 208.173 128.635 208.079 128.518C207.984 128.401 207.857 128.343 207.696 128.343C207.528 128.343 207.4 128.386 207.311 128.474C207.222 128.56 207.178 128.68 207.178 128.836C207.178 128.98 207.224 129.094 207.317 129.181C207.412 129.265 207.566 129.343 207.781 129.413C207.996 129.482 208.164 129.559 208.284 129.644C208.405 129.727 208.494 129.824 208.551 129.936C208.609 130.047 208.637 130.178 208.637 130.327C208.637 130.566 208.565 130.758 208.422 130.903C208.279 131.048 208.079 131.134 207.821 131.161V131.565H207.508V131.161C207.245 131.137 207.04 131.044 206.89 130.882C206.742 130.718 206.668 130.497 206.668 130.217H207.059C207.059 130.413 207.111 130.564 207.214 130.67C207.317 130.776 207.463 130.829 207.652 130.829C207.836 130.829 207.982 130.784 208.087 130.696C208.193 130.607 208.246 130.485 208.246 130.332Z" fill="#FE670E"/>
<path d="M211.734 128.042V128.374H211.662C211.358 128.38 211.115 128.47 210.935 128.645C210.754 128.82 210.65 129.066 210.622 129.384C210.784 129.197 211.005 129.104 211.286 129.104C211.554 129.104 211.768 129.199 211.927 129.388C212.088 129.577 212.168 129.821 212.168 130.12C212.168 130.437 212.081 130.691 211.908 130.882C211.736 131.072 211.505 131.167 211.214 131.167C210.919 131.167 210.68 131.055 210.497 130.829C210.314 130.602 210.222 130.31 210.222 129.953V129.803C210.222 129.236 210.342 128.802 210.584 128.503C210.826 128.203 211.187 128.049 211.665 128.042H211.734ZM211.22 129.43C211.086 129.43 210.963 129.47 210.85 129.551C210.737 129.631 210.659 129.732 210.615 129.853V129.997C210.615 130.251 210.672 130.456 210.787 130.611C210.901 130.766 211.043 130.844 211.214 130.844C211.39 130.844 211.528 130.779 211.629 130.649C211.73 130.519 211.781 130.349 211.781 130.139C211.781 129.927 211.729 129.757 211.627 129.627C211.525 129.496 211.39 129.43 211.22 129.43Z" fill="#FE670E"/>
<path d="M214.563 129.811C214.563 130.27 214.484 130.61 214.328 130.833C214.171 131.056 213.927 131.167 213.594 131.167C213.265 131.167 213.022 131.059 212.864 130.842C212.706 130.623 212.624 130.297 212.619 129.864V129.341C212.619 128.889 212.697 128.552 212.853 128.332C213.01 128.112 213.255 128.002 213.59 128.002C213.921 128.002 214.165 128.108 214.322 128.321C214.478 128.533 214.558 128.86 214.563 129.303V129.811ZM214.171 129.276C214.171 128.944 214.125 128.703 214.032 128.552C213.939 128.4 213.791 128.324 213.59 128.324C213.389 128.324 213.243 128.399 213.152 128.55C213.06 128.701 213.013 128.933 213.01 129.246V129.872C213.01 130.205 213.058 130.452 213.154 130.611C213.251 130.769 213.398 130.848 213.594 130.848C213.787 130.848 213.93 130.773 214.023 130.624C214.118 130.474 214.167 130.238 214.171 129.917V129.276Z" fill="#FE670E"/>
<path d="M141.69 142.435H136.11C132.784 142.435 130.109 139.757 130.109 136.43V130.731C130.109 127.403 132.784 124.726 136.11 124.726H141.69C145.016 124.726 147.691 127.403 147.691 130.731V136.43C147.729 139.757 145.016 142.435 141.69 142.435Z" fill="#2AC769"/>
<path d="M191.991 67.8898H155.297C154.227 67.8898 153.386 67.0483 153.386 65.9774C153.386 64.9065 154.227 64.0651 155.297 64.0651H191.991C193.061 64.0651 193.902 64.9065 193.902 65.9774C193.902 67.0483 193.061 67.8898 191.991 67.8898Z" fill="#212025"/>
<path d="M191.647 44.0615H132.135C131.064 44.0615 130.224 43.22 130.224 42.1491C130.224 41.0781 131.064 40.2367 132.135 40.2367H191.647C192.717 40.2367 193.558 41.0781 193.558 42.1491C193.558 43.22 192.679 44.0615 191.647 44.0615Z" fill="#212025"/>
<path d="M179.76 76.3044H154.915C153.845 76.3044 153.004 75.463 153.004 74.392C153.004 73.3211 153.845 72.4796 154.915 72.4796H179.76C180.83 72.4796 181.671 73.3211 181.671 74.392C181.671 75.463 180.83 76.3044 179.76 76.3044Z" fill="#259251"/>
<path d="M192.22 99.7502H155.527C154.457 99.7502 153.616 98.9088 153.616 97.8378C153.616 96.7669 154.457 95.9254 155.527 95.9254H192.22C193.291 95.9254 194.132 96.7669 194.132 97.8378C194.132 98.8705 193.252 99.7502 192.22 99.7502Z" fill="#212025"/>
<path d="M191.417 172.574H154.724C153.654 172.574 152.813 171.733 152.813 170.662C152.813 169.591 153.654 168.749 154.724 168.749H191.417C192.488 168.749 193.329 169.591 193.329 170.662C193.329 171.694 192.449 172.574 191.417 172.574Z" fill="#F6F2FF"/>
<path d="M201.47 178.617H141.652C140.926 178.617 140.353 178.043 140.353 177.317C140.353 176.59 140.926 176.016 141.652 176.016H201.47C202.196 176.016 202.77 176.59 202.77 177.317C202.732 178.043 202.158 178.617 201.47 178.617Z" fill="#259251"/>
<path d="M179.989 108.165H155.145C154.074 108.165 153.234 107.323 153.234 106.252C153.234 105.181 154.074 104.34 155.145 104.34H179.989C181.059 104.34 181.9 105.181 181.9 106.252C181.9 107.285 181.021 108.165 179.989 108.165Z" fill="#259251"/>
<path d="M192.832 130.081H156.138C155.068 130.081 154.227 129.239 154.227 128.168C154.227 127.097 155.068 126.256 156.138 126.256H192.832C193.902 126.256 194.743 127.097 194.743 128.168C194.743 129.239 193.902 130.081 192.832 130.081Z" fill="#212025"/>
<path d="M180.601 138.495H155.756C154.686 138.495 153.845 137.654 153.845 136.583C153.845 135.512 154.686 134.671 155.756 134.671H180.601C181.671 134.671 182.512 135.512 182.512 136.583C182.512 137.654 181.671 138.495 180.601 138.495Z" fill="#259251"/>
<path d="M135.613 135.168C136.858 135.168 137.868 134.158 137.868 132.911C137.868 131.665 136.858 130.655 135.613 130.655C134.367 130.655 133.358 131.665 133.358 132.911C133.358 134.158 134.367 135.168 135.613 135.168Z" fill="#FFDE8D"/>
<path d="M142.302 135.206C143.548 135.206 144.557 134.196 144.557 132.949C144.557 131.703 143.548 130.693 142.302 130.693C141.057 130.693 140.047 131.703 140.047 132.949C140.047 134.196 141.057 135.206 142.302 135.206Z" fill="#259251"/>
<path d="M135.689 143.621C134.466 143.621 133.434 142.626 133.434 141.364V138.457C133.434 137.233 134.428 136.2 135.689 136.2C136.913 136.2 137.945 137.195 137.945 138.457V141.364C137.906 142.626 136.913 143.621 135.689 143.621Z" fill="#259251"/>
<path d="M141.69 80.4734H136.11C132.784 80.4734 130.109 77.796 130.109 74.4685V68.7696C130.109 65.442 132.784 62.7646 136.11 62.7646H141.69C145.016 62.7646 147.691 65.442 147.691 68.7696V74.4685C147.729 77.796 145.016 80.4734 141.69 80.4734Z" fill="#2AC769"/>
<path d="M141.69 111.454H136.11C132.784 111.454 130.109 108.777 130.109 105.449V99.7503C130.109 96.4227 132.784 93.7454 136.11 93.7454H141.69C145.016 93.7454 147.691 96.4227 147.691 99.7503V105.449C147.729 108.777 145.016 111.454 141.69 111.454Z" fill="#FFDE8D"/>
<path d="M141.92 106.864C142.806 106.864 143.525 106.145 143.525 105.258C143.525 104.371 142.806 103.651 141.92 103.651C141.033 103.651 140.314 104.371 140.314 105.258C140.314 106.145 141.033 106.864 141.92 106.864Z" fill="#259251"/>
<path d="M131.676 103.804C136.531 103.804 140.467 99.8659 140.467 95.0075C140.467 90.149 136.531 86.2104 131.676 86.2104C126.821 86.2104 122.885 90.149 122.885 95.0075C122.885 99.8659 126.821 103.804 131.676 103.804Z" fill="#259251"/>
<path d="M130.529 117.497C133.696 117.497 136.263 114.86 136.263 111.607C136.263 108.354 133.696 105.717 130.529 105.717C127.363 105.717 124.796 108.354 124.796 111.607C124.796 114.86 127.363 117.497 130.529 117.497Z" fill="#2AC769"/>
<path d="M139.015 82.1945C144.144 82.1945 148.303 79.8998 148.303 77.0693C148.303 74.2387 144.144 71.9441 139.015 71.9441C133.885 71.9441 129.727 74.2387 129.727 77.0693C129.727 79.8998 133.885 82.1945 139.015 82.1945Z" fill="#FFDE8D"/>
<path d="M138.862 68.6165C142.113 68.6165 144.748 66.2877 144.748 63.4148C144.748 60.542 142.113 58.2131 138.862 58.2131C135.611 58.2131 132.975 60.542 132.975 63.4148C132.975 66.2877 135.611 68.6165 138.862 68.6165Z" fill="#259251"/>
<path d="M62.3789 51.711C58.786 55.2298 56.8366 59.5136 56.6455 64.5623C56.6455 64.7535 56.6073 64.9448 56.4544 65.0978C56.3015 65.2125 56.1104 65.2507 55.9575 65.1743C55.7664 65.0595 55.6517 64.9065 55.6517 64.677C55.69 63.5679 55.8046 62.4969 55.9957 61.426C56.8748 57.104 58.9006 53.4704 62.1878 50.5636C65.9718 47.1595 70.4438 45.5149 75.5274 45.5531C75.9096 45.5531 76.1007 45.7444 76.1007 46.0504C76.1007 46.3563 75.8714 46.5476 75.4892 46.5476C73.8074 46.5093 72.0874 46.7388 70.4438 47.1596C67.73 47.8863 65.2073 49.2249 63.0669 51.0608C62.8758 51.2138 62.6464 51.4433 62.3789 51.711Z" fill="black"/>
<path d="M64.4812 53.8146C67.5772 50.9077 71.2083 49.4161 75.4892 49.4543C75.7568 49.4543 75.9861 49.5691 76.0626 49.8368C76.139 50.1045 76.0243 50.2958 75.795 50.4105C75.7186 50.4488 75.6039 50.4488 75.5275 50.4488C72.4314 50.4105 69.5648 51.252 67.0421 53.0496C63.1052 55.8417 61.003 59.6665 60.7354 64.4475C60.7354 64.524 60.7354 64.6387 60.7354 64.7535C60.6972 65.0977 60.5061 65.2889 60.2003 65.2889C59.8945 65.2889 59.7034 65.0594 59.7034 64.7152C59.7034 64.1032 59.7798 63.4913 59.8563 62.8793C60.3914 59.437 61.8821 56.4919 64.3283 54.0441C64.3283 53.9676 64.4047 53.8911 64.4812 53.8146Z" fill="black"/>
<path d="M67.1951 56.6833C69.4502 54.5797 72.0875 53.4705 75.1835 53.4323C75.3364 53.4323 75.5275 53.4322 75.6804 53.5087C75.9098 53.5852 76.0626 53.7382 76.0244 54.006C75.9862 54.2737 75.7569 54.4649 75.4893 54.4649C74.4191 54.4267 73.3871 54.5797 72.3551 54.8857C67.9595 56.1096 64.7871 60.1639 64.6342 64.7536C64.6342 65.1361 64.4431 65.3656 64.0991 65.3656C63.7933 65.3656 63.6022 65.0978 63.6022 64.6771C63.7551 61.5408 64.9782 58.9017 67.1951 56.6833Z" fill="black"/>
<path d="M108.743 90.1501C108.743 90.1501 110.195 88.9262 111.953 89.5764C113.712 90.2266 114.4 94.931 108.513 98.794C102.627 102.619 108.743 90.1501 108.743 90.1501Z" fill="#FFA398"/>
<path d="M108.284 100.974C108.284 100.974 114.629 100.592 116.234 102.313C117.84 104.034 116.081 108.28 108.284 110.536C100.487 112.793 108.284 100.974 108.284 100.974Z" fill="#FFA398"/>
<path d="M108.246 145.456C108.246 145.456 113.062 140.561 111.648 137.539C110.233 134.518 107.672 132.146 103.659 132.72C102.971 140.217 102.971 140.217 102.971 140.217L108.246 145.456Z" fill="#F2968F"/>
<path d="M77.2858 60.7376L105.953 63.2237C109.393 63.5296 111.915 66.513 111.648 69.9553L105.838 139.987C105.57 143.391 102.589 145.915 99.1872 145.686L70.5587 143.774C67.0805 143.544 64.4813 140.522 64.7489 137.042L70.5205 66.4747C70.8262 62.9942 73.8458 60.4316 77.2858 60.7376Z" fill="#1A182D"/>
<path d="M77.0947 62.8794L105.723 65.4802C108.055 65.6715 109.775 67.7368 109.584 70.07L104.08 139.566C103.889 141.899 101.863 143.659 99.5312 143.506L70.9409 141.517C68.5711 141.364 66.8128 139.299 67.004 136.927L72.4698 66.8571C72.6226 64.4093 74.7249 62.6499 77.0947 62.8794Z" fill="#F9F8FF"/>
<path d="M107.328 122.202C107.328 122.202 101.366 126.906 101.977 130.348C102.589 133.791 107.52 135.282 111.533 130.501C115.546 125.72 114.897 119.218 107.558 117.841C107.329 121.857 107.328 122.202 107.328 122.202Z" fill="#FFA398"/>
<path d="M102.398 150.811C101.748 152.226 100.525 154.024 99.0724 155.974C94.7532 161.712 88.2172 168.596 87.0705 169.705C85.5034 171.235 83.4012 175.328 83.4012 175.328L65.1691 222.22L16.8943 222.181L41.7006 180.683C41.7006 180.683 52.0589 163.203 54.8873 157.734C57.7158 152.303 56.4927 147.675 55.3078 139.413C54.0847 131.152 56.4544 122.699 58.8625 114.208C61.2705 105.717 65.0163 102.16 67.5007 102.313C69.6794 102.466 69.4883 106.52 69.1443 108.891C68.8385 111.263 69.5265 119.41 69.4883 121.054C69.45 122.737 71.858 132.796 72.202 134.403C72.4696 135.588 74.9923 140.025 76.3683 142.435C76.9034 143.353 77.2474 143.926 77.2474 143.926L103.468 146.183C103.544 146.221 104.959 145.303 102.398 150.811Z" stroke="#FFA398" stroke-miterlimit="10"/>
<path d="M102.398 150.811C101.748 152.226 100.525 154.024 99.0724 155.974C94.7532 161.712 88.2172 168.596 87.0705 169.705C85.5034 171.235 83.4012 175.328 83.4012 175.328L65.1691 222.22L16.8943 222.181L41.7006 180.683C41.7006 180.683 52.0589 163.203 54.8873 157.734C57.7158 152.303 56.4927 147.675 55.3078 139.413C54.0847 131.152 56.4544 122.699 58.8624 114.208C61.2705 105.717 65.0163 102.16 67.5007 102.313C69.6794 102.466 69.4883 106.52 69.1443 108.891C68.8385 111.263 69.5265 119.41 69.4883 121.054C69.45 122.737 71.858 132.796 72.202 134.403C72.4696 135.588 74.9923 140.025 76.3683 142.435C76.9034 143.353 77.2474 143.926 77.2474 143.926L103.468 146.183C103.544 146.221 104.959 145.303 102.398 150.811Z" fill="#FFA398"/>
<path d="M102.398 150.811C101.748 152.226 100.525 154.024 99.0724 155.975C97.8111 151.691 93.4155 144.615 78.3941 146.604C77.4385 144.5 76.7887 143.162 76.4065 142.435C76.9416 143.353 77.2856 143.926 77.2856 143.926L103.506 146.183C103.544 146.221 104.959 145.303 102.398 150.811Z" fill="#FE786D"/>
<path d="M114.4 149.09C114.4 149.09 105.188 158.767 105.723 170.662C106.258 182.557 113.941 178.12 114.629 177.049C115.317 175.978 115.393 175.06 115.393 175.06C115.393 175.06 115.928 180.109 120.362 179.114L114.4 149.09Z" fill="#FE786D"/>
<path d="M89.4405 129.622C87.3 132.108 90.2814 136.468 94.3329 141.555C98.3845 146.642 107.29 157.543 109.698 161.061C112.106 164.58 118.986 177.738 119.407 180.797C119.827 183.819 119.904 187.758 114.782 187.223C109.698 186.687 107.825 173.071 107.214 171.274C106.602 169.476 103.965 159.876 99.9134 161.406C95.8618 162.936 97.0849 180.032 101.786 191.813C106.488 203.593 116.617 216.521 121.433 218.854L123.726 222.296L157.515 222.22C157.515 222.22 157.018 214.914 157.018 212.619C157.018 210.325 156.139 177.432 148.188 175.519C148.188 175.519 147.844 170.011 143.563 169.438C143.563 169.438 126.822 145.15 118.757 145.571C116.693 146.451 115.393 147.866 115.393 147.866C115.393 147.866 95.556 129.316 92.7276 129.048C89.8609 128.78 89.4405 129.622 89.4405 129.622Z" fill="#FFA398"/>
<path d="M106.373 82.424L104.462 102.772C104.385 103.613 103.583 104.264 102.704 104.187L69.7177 101.586L71.6288 77.5283L104.92 80.7411C105.8 80.8176 106.449 81.5826 106.373 82.424Z" fill="#E6E2F0"/>
<path d="M105.15 79.2495L104.997 81.0088L104.576 86.44L103.544 99.6355C103.43 100.936 102.283 101.93 100.984 101.816L63.2581 98.2586C61.9967 98.1438 61.0412 97.0346 61.1176 95.7725L61.9203 82.6917L62.2643 76.9928L62.3407 75.5012C62.4172 74.1625 63.6021 73.1681 64.9016 73.2828L102.933 76.6869C104.271 76.8398 105.226 77.949 105.15 79.2495Z" fill="#2AC769"/>
<path d="M104.997 81.0088L104.576 86.4399L61.9584 82.7299L62.3024 77.031L104.997 81.0088Z" fill="#1A182D"/>
<path d="M65.7043 86.4783L65.5514 88.8879L86.7649 90.6855L86.9177 88.2759L65.7043 86.4783Z" fill="white"/>
<path d="M91.0073 88.6201L90.8162 91.068L100.066 91.9476L100.257 89.6146L91.0073 88.6201Z" fill="#FFFFFE"/>
<path d="M83.5541 92.8657L99.9132 94.1661L99.8368 95.3518L83.4394 94.0897L83.5541 92.8657Z" fill="#259251"/>
<path d="M83.4011 95.0841L99.7602 96.3463L99.6838 97.5702L83.3246 96.2698L83.4011 95.0841Z" fill="#259251"/>
<path d="M78.5087 157.504C78.5087 157.504 82.3309 153.221 77.2856 143.965" stroke="#FE786D" stroke-width="2" stroke-miterlimit="10" stroke-linecap="round"/>
<path d="M115.355 147.904C115.355 147.904 128.198 163.586 130.835 164.695" stroke="#FE786D" stroke-width="2" stroke-miterlimit="10" stroke-linecap="round"/>
<path d="M135.536 171.541C135.536 171.541 137.448 174.984 139.512 187.644C141.576 200.342 141.576 201.222 141.576 201.222" stroke="#FE786D" stroke-width="2" stroke-miterlimit="10" stroke-linecap="round"/>
<path d="M143.525 169.476C143.525 169.476 145.513 174.831 146.277 180.185C147.041 185.54 147.003 185.005 147.003 185.005" stroke="#FE786D" stroke-width="2" stroke-miterlimit="10" stroke-linecap="round"/>
<path d="M148.15 175.557C148.15 175.557 149.985 183.704 149.908 183.895" stroke="#FE786D" stroke-width="2" stroke-miterlimit="10" stroke-linecap="round"/>
<path d="M75.1834 112.64L100.181 114.935C101.328 115.049 102.13 116.044 102.016 117.191L101.595 121.437C101.48 122.546 100.487 123.349 99.3782 123.273L74.3807 121.169C73.2341 121.054 72.3932 120.06 72.5078 118.912L72.9665 114.437C73.0812 113.366 74.075 112.525 75.1834 112.64Z" fill="#E6E2F0"/>
<path d="M74.419 111.492L99.4164 113.787C100.563 113.902 101.366 114.896 101.251 116.044L100.831 120.289C100.716 121.398 99.7222 122.202 98.6137 122.125L73.6163 120.022C72.4697 119.907 71.6288 118.912 71.7434 117.765L72.2021 113.29C72.3168 112.219 73.3106 111.378 74.419 111.492Z" fill="#2AC769"/>
<path d="M84.2422 115.241C84.8537 115.279 85.1978 115.738 85.1595 116.312C85.1213 116.924 84.6626 117.268 84.0511 117.23L83.516 117.191L83.4395 118.109L82.8279 118.071L83.0955 115.164L84.2422 115.241ZM83.516 116.694L83.9364 116.732C84.2804 116.771 84.5097 116.579 84.548 116.273C84.5862 115.929 84.3951 115.738 84.0511 115.7L83.6306 115.661L83.516 116.694Z" fill="white"/>
<path d="M86.8031 117.65L85.7711 117.574L85.5035 118.262L84.892 118.224L86.1533 115.432L86.8795 115.509L87.644 118.492L86.9942 118.454L86.8031 117.65ZM85.9622 117.115L86.7267 117.191L86.4591 115.967L85.9622 117.115Z" fill="white"/>
<path d="M88.3319 118.492L88.4084 117.421L87.5675 115.508L88.2173 115.585L88.7524 116.885L89.5169 115.7L90.1666 115.738L88.9817 117.459L88.9053 118.53L88.3319 118.492Z" fill="white"/>
</svg>
