<svg width="234" height="189" viewBox="0 0 234 189" fill="none" xmlns="http://www.w3.org/2000/svg">
<path d="M219 77.4278C219.015 71.8599 217.702 66.37 215.17 61.421C212.638 56.4721 208.961 52.2093 204.451 48.9923C204.576 47.7896 204.64 46.5812 204.643 45.3718C204.643 26.249 189.468 10.7524 170.759 10.7524C164.997 10.7462 159.331 12.244 154.314 15.1001C141.067 6.31598 123.775 1 104.858 1C74.0873 1 47.6011 15.0711 35.8549 35.2491C35.2021 35.2105 34.5455 35.1893 33.8832 35.1893C15.1728 35.1893 6.6161e-05 50.6917 6.6161e-05 69.8145C-0.0130483 76.5691 1.92375 83.1817 5.57451 88.8467C5.57451 106.052 21.691 120 41.5634 120H185.737C201.346 120 214 109.048 214 95.538C217.283 90.0773 219.012 83.8123 219 77.4278Z" fill="#F6F3FD"/>
<path d="M190.422 185.225L155.005 99.4785C154.173 97.4637 155.145 95.1541 157.178 94.3197L169.248 89.3639C171.281 88.5295 173.603 89.4864 174.435 91.5012L209.852 177.248C210.684 179.263 209.711 181.572 207.679 182.407L195.608 187.362C193.576 188.197 191.254 187.24 190.422 185.225Z" fill="#F6F3FD"/>
<path d="M146.143 118.625C154.883 118.625 161.968 111.561 161.968 102.847C161.968 94.1329 154.883 87.069 146.143 87.069C137.403 87.069 130.318 94.1329 130.318 102.847C130.318 111.561 137.403 118.625 146.143 118.625Z" fill="#FFCC5B"/>
<path d="M146.143 114.108C139.913 114.108 134.846 109.055 134.846 102.845C134.846 96.6363 139.913 91.5844 146.143 91.5844C152.372 91.5844 157.439 96.6377 157.439 102.847C157.439 109.056 152.372 114.108 146.143 114.108Z" fill="#FFDB70"/>
<path d="M154.029 100.353H148.535L146.836 95.1424C146.617 94.4732 145.667 94.4732 145.448 95.1424L143.751 100.353H138.256C137.55 100.353 137.256 101.254 137.828 101.668L142.273 104.888L140.575 110.098C140.357 110.767 141.126 111.324 141.698 110.911L146.143 107.691L150.587 110.911C151.16 111.324 151.928 110.767 151.71 110.098L150.013 104.888L154.457 101.668C155.028 101.254 154.735 100.353 154.029 100.353Z" fill="#EC9922"/>
<path d="M117.968 119.765C125.463 119.765 131.539 113.707 131.539 106.235C131.539 98.7618 125.463 92.704 117.968 92.704C110.473 92.704 104.397 98.7618 104.397 106.235C104.397 113.707 110.473 119.765 117.968 119.765Z" fill="#FFCC5B"/>
<path d="M117.968 115.892C112.626 115.892 108.281 111.558 108.281 106.233C108.281 100.909 112.626 96.5762 117.968 96.5762C123.31 96.5762 127.656 100.91 127.656 106.235C127.656 111.559 123.31 115.892 117.968 115.892Z" fill="#FFDB70"/>
<path d="M124.731 104.096H120.019L118.562 99.6275C118.375 99.0537 117.56 99.0537 117.373 99.6275L115.917 104.096H111.205C110.599 104.096 110.347 104.869 110.838 105.224L114.649 107.985L113.194 112.453C113.006 113.027 113.666 113.505 114.156 113.15L117.968 110.388L121.78 113.15C122.271 113.505 122.93 113.027 122.743 112.453L121.287 107.985L125.098 105.224C125.588 104.869 125.337 104.096 124.731 104.096Z" fill="#EC9922"/>
<path d="M85.2855 123.146C92.7807 123.146 98.8568 117.088 98.8568 109.615C98.8568 102.143 92.7807 96.0848 85.2855 96.0848C77.7903 96.0848 71.7142 102.143 71.7142 109.615C71.7142 117.088 77.7903 123.146 85.2855 123.146Z" fill="#FFCC5B"/>
<path d="M85.2855 119.273C79.9435 119.273 75.598 114.939 75.598 109.614C75.598 104.289 79.9435 99.957 85.2855 99.957C90.6275 99.957 94.9729 104.291 94.9729 109.615C94.9729 114.94 90.6275 119.273 85.2855 119.273Z" fill="#FFDB70"/>
<path d="M92.0484 107.476H87.3367L85.8797 103.008C85.6924 102.435 84.8773 102.435 84.6901 103.008L83.2342 107.476H78.5225C77.9167 107.476 77.6643 108.25 78.155 108.605L81.9668 111.366L80.5109 115.834C80.3237 116.408 80.983 116.886 81.4737 116.531L85.2855 113.769L89.0972 116.531C89.5879 116.886 90.2472 116.408 90.06 115.834L88.6041 111.366L92.4159 108.605C92.9054 108.25 92.6542 107.476 92.0484 107.476Z" fill="#EC9922"/>
<path d="M102.19 115.257C109.685 115.257 115.762 109.199 115.762 101.727C115.762 94.2539 109.685 88.196 102.19 88.196C94.6951 88.196 88.619 94.2539 88.619 101.727C88.619 109.199 94.6951 115.257 102.19 115.257Z" fill="#FFCC5B"/>
<path d="M102.19 111.384C96.8483 111.384 92.5028 107.05 92.5028 101.725C92.5028 96.4007 96.8483 92.0682 102.19 92.0682C107.532 92.0682 111.878 96.4018 111.878 101.727C111.878 107.051 107.532 111.384 102.19 111.384Z" fill="#FFDB70"/>
<path d="M108.953 99.5877H104.241L102.784 95.1196C102.597 94.5457 101.782 94.5457 101.595 95.1196L100.139 99.5877H95.4273C94.8215 99.5877 94.5691 100.361 95.0598 100.716L98.8716 103.477L97.4157 107.945C97.2285 108.519 97.8878 108.997 98.3785 108.642L102.19 105.881L106.002 108.642C106.493 108.997 107.152 108.519 106.965 107.945L105.509 103.477L109.321 100.716C109.81 100.361 109.559 99.5877 108.953 99.5877Z" fill="#EC9922"/>
<path fill-rule="evenodd" clip-rule="evenodd" d="M177.323 43.0844C179.799 44.0812 182.648 42.7828 183.686 40.1843C184.725 37.5859 183.559 34.6713 181.083 33.6745C178.607 32.6777 175.758 33.9761 174.719 36.5746C173.681 39.1731 174.846 42.0876 177.323 43.0844ZM158.92 39.9122C158.572 39.8593 158.225 39.7657 157.885 39.6289C155.409 38.6321 154.243 35.7175 155.282 33.1191C156.32 30.5206 159.169 29.2222 161.645 30.219C164.121 31.2158 165.287 34.1303 164.248 36.7288C163.486 38.6375 161.746 39.8447 159.895 39.9561C165.45 46.6174 169.32 47.1051 177.078 43.2079C177.208 43.1427 177.371 43.2029 177.426 43.3375C180.567 50.9538 183.36 54.2826 192.115 52.9544C190.822 51.5909 190.378 49.4874 191.149 47.5581C192.187 44.9596 195.036 43.6612 197.512 44.658C199.989 45.6548 201.154 48.5693 200.116 51.1678C199.077 53.7663 196.228 55.0647 193.752 54.0679C193.424 53.9357 193.119 53.7698 192.838 53.5754C190.252 58.8444 188.374 61.4391 184.493 64.4099C184.424 64.4629 184.331 64.4759 184.25 64.4432L157.615 53.7209C157.532 53.6874 157.472 53.609 157.461 53.5199C156.682 47.466 157.55 44.5445 158.531 41.2417C158.66 40.8078 158.791 40.3673 158.92 39.9122ZM152.151 56.582C152.49 55.7335 153.453 55.3227 154.302 55.6645L185.302 68.1439C186.151 68.4856 186.564 69.4505 186.225 70.299L183.693 76.6363C183.354 77.4847 182.391 77.8955 181.542 77.5538L150.542 65.0743C149.693 64.7326 149.28 63.7677 149.619 62.9192L152.151 56.582Z" fill="#FFCC5B"/>
<path fill-rule="evenodd" clip-rule="evenodd" d="M87.7908 25.4826C92.0941 24.4701 94.7248 19.9968 93.6666 15.4914C92.6085 10.9859 88.2622 8.15435 83.9589 9.1669C79.6556 10.1795 77.0249 14.6527 78.0831 19.1582C79.1412 23.6636 83.4875 26.4952 87.7908 25.4826ZM59.829 38.7387C59.3065 38.9992 58.7472 39.2035 58.1565 39.3425C53.8532 40.355 49.5069 37.5235 48.4487 33.018C47.3906 28.5126 50.0213 24.0393 54.3245 23.0268C58.6278 22.0142 62.9741 24.8458 64.0323 29.3512C64.8095 32.6607 63.5965 35.9528 61.1922 37.8687C75.0859 41.5938 80.7887 38.5354 87.6355 25.7734C87.718 25.6196 87.9203 25.5657 88.0675 25.6596C99.6162 33.0239 106.572 34.9061 117.215 24.7299C114.167 24.1186 111.569 21.6961 110.783 18.3509C109.725 13.8454 112.355 9.37219 116.659 8.35963C120.962 7.34708 125.308 10.1786 126.366 14.6841C127.425 19.1896 124.794 23.6628 120.491 24.6754C119.92 24.8096 119.349 24.8763 118.784 24.8804C120.281 34.5006 120.194 39.8036 117.732 47.5567C117.701 47.6565 117.618 47.7339 117.516 47.758L71.1 58.6795C70.9949 58.7042 70.8825 58.6682 70.8097 58.5886C63.9709 51.1125 62.3718 46.3238 60.5633 40.9082L60.5633 40.9081L60.5633 40.9081L60.5632 40.9081C60.3262 40.1982 60.0855 39.4775 59.829 38.7387ZM66.2998 67.0137C66.0491 65.9463 66.7137 64.8768 67.7842 64.6249L123.125 51.6033C124.196 51.3514 125.267 52.0125 125.517 53.0799L128.441 65.5302C128.692 66.5976 128.028 67.6671 126.957 67.919L71.6161 80.9406C70.5456 81.1925 69.4746 80.5314 69.2239 79.4639L66.2998 67.0137Z" fill="#FFCC5B"/>
<path d="M153.688 187.631H61.4367C59.1085 187.631 57.2212 185.75 57.2212 183.428V113.9H157.904V183.428C157.904 185.75 156.017 187.631 153.688 187.631Z" fill="#F6F3FD"/>
<path d="M164.958 180.869H72.7066C70.3784 180.869 68.4911 178.988 68.4911 176.666V107.138H169.174V176.666C169.174 178.988 167.287 180.869 164.958 180.869Z" fill="#2AC769"/>
<path d="M169.175 107.138V176.666C169.175 178.988 167.287 180.87 164.958 180.87H72.7064C70.3777 180.87 68.4921 178.988 68.4921 176.666V163.68C76.6736 167.105 85.6612 168.999 95.0945 168.999C130.811 168.999 160.169 141.86 163.559 107.138H169.175Z" fill="#23BD61"/>
<path d="M107.286 107.138H130.378V180.869H107.286V107.138Z" fill="#259251"/>
<path d="M115.667 107.355H120.175V180.609H115.667V107.355Z" fill="white"/>
<path opacity="0.31" d="M129.337 140.321H130.396C130.589 140.321 130.733 140.513 130.733 140.657V141.713C130.733 141.906 130.589 142.05 130.396 142.05H129.337C129.145 142.05 129 141.857 129 141.713V140.657C129 140.465 129.145 140.321 129.337 140.321Z" fill="white"/>
<path opacity="0.31" d="M136.317 140.321H137.376C137.568 140.321 137.712 140.513 137.712 140.657V141.713C137.712 141.906 137.568 142.05 137.376 142.05H136.317C136.124 142.05 135.98 141.857 135.98 141.713V140.657C135.98 140.465 136.124 140.321 136.317 140.321Z" fill="white"/>
<path opacity="0.31" d="M143.248 140.321H144.307C144.499 140.321 144.644 140.513 144.644 140.657V141.713C144.644 141.906 144.499 142.05 144.307 142.05H143.248C143.055 142.05 142.911 141.857 142.911 141.713V140.657C142.911 140.465 143.055 140.321 143.248 140.321Z" fill="white"/>
<path opacity="0.31" d="M150.227 140.321H151.286C151.479 140.321 151.623 140.513 151.623 140.657V141.713C151.623 141.906 151.479 142.05 151.286 142.05H150.227C150.035 142.05 149.89 141.857 149.89 141.713V140.657C149.89 140.465 150.035 140.321 150.227 140.321Z" fill="white"/>
<path opacity="0.31" d="M157.206 140.321H158.265C158.458 140.321 158.602 140.513 158.602 140.657V141.713C158.602 141.906 158.458 142.05 158.265 142.05H157.206C157.014 142.05 156.869 141.857 156.869 141.713V140.657C156.821 140.465 156.966 140.321 157.206 140.321Z" fill="white"/>
<path opacity="0.31" d="M164.138 140.321H165.197C165.389 140.321 165.533 140.513 165.533 140.657V141.713C165.533 141.906 165.389 142.05 165.197 142.05H164.138C163.945 142.05 163.801 141.857 163.801 141.713V140.657C163.801 140.465 163.945 140.321 164.138 140.321Z" fill="white"/>
<path opacity="0.31" d="M129.337 147.236H130.396C130.589 147.236 130.733 147.428 130.733 147.572V148.628C130.733 148.82 130.589 148.964 130.396 148.964H129.337C129.145 148.964 129 148.772 129 148.628V147.572C129 147.428 129.145 147.236 129.337 147.236Z" fill="white"/>
<path opacity="0.31" d="M136.317 147.236H137.376C137.568 147.236 137.712 147.428 137.712 147.572V148.628C137.712 148.82 137.568 148.964 137.376 148.964H136.317C136.124 148.964 135.98 148.772 135.98 148.628V147.572C135.98 147.428 136.124 147.236 136.317 147.236Z" fill="white"/>
<path opacity="0.31" d="M143.248 147.236H144.307C144.499 147.236 144.644 147.428 144.644 147.572V148.628C144.644 148.82 144.499 148.964 144.307 148.964H143.248C143.055 148.964 142.911 148.772 142.911 148.628V147.572C142.911 147.428 143.055 147.236 143.248 147.236Z" fill="white"/>
<path opacity="0.31" d="M150.227 147.236H151.286C151.479 147.236 151.623 147.428 151.623 147.572V148.628C151.623 148.82 151.479 148.964 151.286 148.964H150.227C150.035 148.964 149.89 148.772 149.89 148.628V147.572C149.89 147.428 150.035 147.236 150.227 147.236Z" fill="white"/>
<path opacity="0.31" d="M157.206 147.236H158.265C158.458 147.236 158.602 147.428 158.602 147.572V148.628C158.602 148.82 158.458 148.964 158.265 148.964H157.206C157.014 148.964 156.869 148.772 156.869 148.628V147.572C156.821 147.428 156.966 147.236 157.206 147.236Z" fill="white"/>
<path opacity="0.31" d="M164.138 147.236H165.197C165.389 147.236 165.533 147.428 165.533 147.572V148.628C165.533 148.82 165.389 148.964 165.197 148.964H164.138C163.945 148.964 163.801 148.772 163.801 148.628V147.572C163.801 147.428 163.945 147.236 164.138 147.236Z" fill="white"/>
<path opacity="0.31" d="M129.337 154.199H130.396C130.589 154.199 130.733 154.391 130.733 154.535V155.591C130.733 155.783 130.589 155.927 130.396 155.927H129.337C129.145 155.927 129 155.735 129 155.591V154.535C129 154.343 129.145 154.199 129.337 154.199Z" fill="white"/>
<path opacity="0.31" d="M136.317 154.199H137.376C137.568 154.199 137.712 154.391 137.712 154.535V155.591C137.712 155.783 137.568 155.927 137.376 155.927H136.317C136.124 155.927 135.98 155.735 135.98 155.591V154.535C135.98 154.343 136.124 154.199 136.317 154.199Z" fill="white"/>
<path opacity="0.31" d="M143.248 154.199H144.307C144.499 154.199 144.644 154.391 144.644 154.535V155.591C144.644 155.783 144.499 155.927 144.307 155.927H143.248C143.055 155.927 142.911 155.735 142.911 155.591V154.535C142.911 154.343 143.055 154.199 143.248 154.199Z" fill="white"/>
<path opacity="0.31" d="M150.227 154.199H151.286C151.479 154.199 151.623 154.391 151.623 154.535V155.591C151.623 155.783 151.479 155.927 151.286 155.927H150.227C150.035 155.927 149.89 155.735 149.89 155.591V154.535C149.89 154.343 150.035 154.199 150.227 154.199Z" fill="white"/>
<path opacity="0.31" d="M157.206 154.199H158.265C158.458 154.199 158.602 154.391 158.602 154.535V155.591C158.602 155.783 158.458 155.927 158.265 155.927H157.206C157.014 155.927 156.869 155.735 156.869 155.591V154.535C156.821 154.343 156.966 154.199 157.206 154.199Z" fill="white"/>
<path opacity="0.31" d="M164.138 154.199H165.197C165.389 154.199 165.533 154.391 165.533 154.535V155.591C165.533 155.783 165.389 155.927 165.197 155.927H164.138C163.945 155.927 163.801 155.735 163.801 155.591V154.535C163.801 154.343 163.945 154.199 164.138 154.199Z" fill="white"/>
<path opacity="0.31" d="M129.337 161.114H130.396C130.589 161.114 130.733 161.306 130.733 161.45V162.506C130.733 162.698 130.589 162.842 130.396 162.842H129.337C129.145 162.842 129 162.65 129 162.506V161.45C129 161.306 129.145 161.114 129.337 161.114Z" fill="white"/>
<path opacity="0.31" d="M136.317 161.114H137.376C137.568 161.114 137.712 161.306 137.712 161.45V162.506C137.712 162.698 137.568 162.842 137.376 162.842H136.317C136.124 162.842 135.98 162.65 135.98 162.506V161.45C135.98 161.306 136.124 161.114 136.317 161.114Z" fill="white"/>
<path opacity="0.31" d="M143.248 161.114H144.307C144.499 161.114 144.644 161.306 144.644 161.45V162.506C144.644 162.698 144.499 162.842 144.307 162.842H143.248C143.055 162.842 142.911 162.65 142.911 162.506V161.45C142.911 161.306 143.055 161.114 143.248 161.114Z" fill="white"/>
<path opacity="0.31" d="M150.227 161.114H151.286C151.479 161.114 151.623 161.306 151.623 161.45V162.506C151.623 162.698 151.479 162.842 151.286 162.842H150.227C150.035 162.842 149.89 162.65 149.89 162.506V161.45C149.89 161.306 150.035 161.114 150.227 161.114Z" fill="white"/>
<path opacity="0.31" d="M157.206 161.114H158.265C158.458 161.114 158.602 161.306 158.602 161.45V162.506C158.602 162.698 158.458 162.842 158.265 162.842H157.206C157.014 162.842 156.869 162.65 156.869 162.506V161.45C156.821 161.306 156.966 161.114 157.206 161.114Z" fill="white"/>
<path opacity="0.31" d="M164.138 161.114H165.197C165.389 161.114 165.533 161.306 165.533 161.45V162.506C165.533 162.698 165.389 162.842 165.197 162.842H164.138C163.945 162.842 163.801 162.65 163.801 162.506V161.45C163.801 161.306 163.945 161.114 164.138 161.114Z" fill="white"/>
<path opacity="0.31" d="M129.337 168.077H130.396C130.589 168.077 130.733 168.269 130.733 168.413V169.469C130.733 169.661 130.589 169.805 130.396 169.805H129.337C129.145 169.805 129 169.613 129 169.469V168.413C129 168.221 129.145 168.077 129.337 168.077Z" fill="white"/>
<path opacity="0.31" d="M136.317 168.077H137.376C137.568 168.077 137.712 168.269 137.712 168.413V169.469C137.712 169.661 137.568 169.805 137.376 169.805H136.317C136.124 169.805 135.98 169.613 135.98 169.469V168.413C135.98 168.221 136.124 168.077 136.317 168.077Z" fill="white"/>
<path opacity="0.31" d="M143.248 168.077H144.307C144.499 168.077 144.644 168.269 144.644 168.413V169.469C144.644 169.661 144.499 169.805 144.307 169.805H143.248C143.055 169.805 142.911 169.613 142.911 169.469V168.413C142.911 168.221 143.055 168.077 143.248 168.077Z" fill="white"/>
<path opacity="0.31" d="M150.227 168.077H151.286C151.479 168.077 151.623 168.269 151.623 168.413V169.469C151.623 169.661 151.479 169.805 151.286 169.805H150.227C150.035 169.805 149.89 169.613 149.89 169.469V168.413C149.89 168.221 150.035 168.077 150.227 168.077Z" fill="white"/>
<path opacity="0.31" d="M157.206 168.077H158.265C158.458 168.077 158.602 168.269 158.602 168.413V169.469C158.602 169.661 158.458 169.805 158.265 169.805H157.206C157.014 169.805 156.869 169.613 156.869 169.469V168.413C156.821 168.221 156.966 168.077 157.206 168.077Z" fill="white"/>
<path opacity="0.31" d="M164.138 168.077H165.197C165.389 168.077 165.533 168.269 165.533 168.413V169.469C165.533 169.661 165.389 169.805 165.197 169.805H164.138C163.945 169.805 163.801 169.613 163.801 169.469V168.413C163.801 168.221 163.945 168.077 164.138 168.077Z" fill="white"/>
<path opacity="0.31" d="M129.337 174.992H130.396C130.589 174.992 130.733 175.184 130.733 175.328V176.384C130.733 176.576 130.589 176.72 130.396 176.72H129.337C129.145 176.72 129 176.528 129 176.384V175.328C129 175.184 129.145 174.992 129.337 174.992Z" fill="white"/>
<path opacity="0.31" d="M136.317 174.992H137.376C137.568 174.992 137.712 175.184 137.712 175.328V176.384C137.712 176.576 137.568 176.72 137.376 176.72H136.317C136.124 176.72 135.98 176.528 135.98 176.384V175.328C135.98 175.184 136.124 174.992 136.317 174.992Z" fill="white"/>
<path opacity="0.31" d="M143.248 174.992H144.307C144.499 174.992 144.644 175.184 144.644 175.328V176.384C144.644 176.576 144.499 176.72 144.307 176.72H143.248C143.055 176.72 142.911 176.528 142.911 176.384V175.328C142.911 175.184 143.055 174.992 143.248 174.992Z" fill="white"/>
<path opacity="0.31" d="M150.227 174.992H151.286C151.479 174.992 151.623 175.184 151.623 175.328V176.384C151.623 176.576 151.479 176.72 151.286 176.72H150.227C150.035 176.72 149.89 176.528 149.89 176.384V175.328C149.89 175.184 150.035 174.992 150.227 174.992Z" fill="white"/>
<path opacity="0.31" d="M157.206 174.992H158.265C158.458 174.992 158.602 175.184 158.602 175.328V176.384C158.602 176.576 158.458 176.72 158.265 176.72H157.206C157.014 176.72 156.869 176.528 156.869 176.384V175.328C156.821 175.184 156.966 174.992 157.206 174.992Z" fill="white"/>
<path opacity="0.31" d="M164.138 174.992H165.197C165.389 174.992 165.533 175.184 165.533 175.328V176.384C165.533 176.576 165.389 176.72 165.197 176.72H164.138C163.945 176.72 163.801 176.528 163.801 176.384V175.328C163.801 175.184 163.945 174.992 164.138 174.992Z" fill="white"/>
<path d="M199.043 128.632L206.61 125.525C208.539 124.733 210.759 125.211 212.189 126.727L230.357 145.984C233.383 149.191 232.249 154.425 228.166 156.101L212.967 162.342L199.043 128.632Z" fill="#259251"/>
<path d="M228.167 156.1L212.965 162.342L205.404 144.034C212.413 150.435 222.576 152.85 232.044 149.683C232.291 152.3 230.881 154.986 228.167 156.1Z" fill="#217B45"/>
<path d="M197.814 125.656L205.38 122.549C207.31 121.757 208.548 119.859 208.493 117.78L207.792 91.351C207.675 86.9501 203.173 84.0297 199.09 85.7061L183.891 91.9464L197.814 125.656Z" fill="#259251"/>
<path d="M205.381 122.549L197.813 125.656L190.665 108.351C194.988 113.318 201.835 115.582 208.394 113.98L208.494 117.78C208.549 119.859 207.309 121.758 205.381 122.549Z" fill="#217B45"/>
<path d="M200.532 132.236L196.325 122.052L205.751 118.182C208.572 117.024 211.8 118.365 212.962 121.177C214.124 123.989 212.779 127.208 209.958 128.366L200.532 132.236L200.532 132.236Z" fill="#2AC769"/>
<path d="M198.311 177.336L162.894 91.5896C162.062 89.5748 163.034 87.2652 165.067 86.4308L177.137 81.4749C179.17 80.6406 181.491 81.5975 182.324 83.6123L217.741 169.359C218.573 171.374 217.6 173.683 215.568 174.518L203.497 179.474C201.465 180.308 199.143 179.351 198.311 177.336Z" fill="#2AC769"/>
<path d="M195.607 115.773L204.457 137.199L185.027 145.176L176.177 123.75L195.607 115.773Z" fill="#259251"/>
<path d="M198.892 123.724L200.655 127.993L181.225 135.97L179.462 131.702L198.892 123.724Z" fill="white"/>
<path d="M137 33.4926C137 32.7639 137.242 32.1676 137.727 31.7039C138.211 31.2346 138.847 31 139.634 31C140.432 31 141.07 31.2346 141.549 31.7039C142.034 32.1676 142.276 32.7777 142.276 33.534V34.1303C142.276 34.8535 142.034 35.447 141.549 35.9107C141.07 36.3744 140.437 36.6063 139.651 36.6063C138.881 36.6063 138.246 36.38 137.744 35.9273C137.248 35.469 137 34.8535 137 34.0806V33.4926ZM138.454 34.1303C138.454 34.5112 138.562 34.8204 138.779 35.0577C139.001 35.2896 139.292 35.4056 139.651 35.4056C140.004 35.4056 140.289 35.2896 140.506 35.0577C140.722 34.8204 140.831 34.5002 140.831 34.0971V33.4926C140.831 33.1117 140.72 32.8025 140.497 32.5651C140.281 32.3277 139.993 32.209 139.634 32.209C139.274 32.209 138.987 32.3305 138.77 32.5734C138.559 32.8108 138.454 33.1255 138.454 33.5175V34.1303ZM142.985 40.2748C142.985 39.5351 143.233 38.9361 143.729 38.4778C144.225 38.0196 144.858 37.7905 145.628 37.7905C146.403 37.7905 147.036 38.0196 147.526 38.4778C148.022 38.9361 148.27 39.5544 148.27 40.3328V40.9208C148.27 41.6385 148.03 42.2319 147.552 42.7012C147.078 43.165 146.443 43.3968 145.645 43.3968C144.847 43.3968 144.203 43.1677 143.712 42.7095C143.228 42.2458 142.985 41.6357 142.985 40.8794V40.2748ZM144.439 40.9208C144.439 41.2962 144.55 41.6053 144.773 41.8483C145.001 42.0856 145.291 42.2043 145.645 42.2043C146.01 42.2043 146.295 42.0912 146.5 41.8648C146.711 41.6329 146.816 41.31 146.816 40.8959V40.2748C146.816 39.8884 146.705 39.5792 146.483 39.3474C146.26 39.1155 145.975 38.9996 145.628 38.9996C145.274 38.9996 144.986 39.1155 144.764 39.3474C144.547 39.5792 144.439 39.8994 144.439 40.308V40.9208ZM140.078 42.3286L139.009 41.7323L145.089 32.3084L146.158 32.9047L140.078 42.3286Z" fill="#259251"/>
<path d="M36 61.4926C36 60.7639 36.2423 60.1676 36.7268 59.7039C37.2114 59.2346 37.847 59 38.6336 59C39.4317 59 40.0701 59.2346 40.549 59.7039C41.0335 60.1676 41.2758 60.7777 41.2758 61.534V62.1303C41.2758 62.8535 41.0335 63.447 40.549 63.9107C40.0701 64.3744 39.4374 64.6063 38.6507 64.6063C37.8812 64.6063 37.2456 64.38 36.7439 63.9273C36.248 63.469 36 62.8535 36 62.0806V61.4926ZM37.4536 62.1303C37.4536 62.5112 37.5619 62.8204 37.7785 63.0577C38.0009 63.2896 38.2916 63.4056 38.6507 63.4056C39.0042 63.4056 39.2892 63.2896 39.5058 63.0577C39.7224 62.8204 39.8307 62.5002 39.8307 62.0971V61.4926C39.8307 61.1117 39.7196 60.8025 39.4972 60.5651C39.2806 60.3277 38.9927 60.209 38.6336 60.209C38.2745 60.209 37.9866 60.3305 37.77 60.5734C37.5591 60.8108 37.4536 61.1255 37.4536 61.5175V62.1303ZM41.9855 68.2748C41.9855 67.5351 42.2335 66.9361 42.7294 66.4778C43.2254 66.0196 43.8581 65.7905 44.6277 65.7905C45.4029 65.7905 46.0357 66.0196 46.5259 66.4778C47.0219 66.9361 47.2698 67.5544 47.2698 68.3328V68.9208C47.2698 69.6385 47.0304 70.2319 46.5516 70.7012C46.0784 71.165 45.4428 71.3968 44.6448 71.3968C43.8467 71.3968 43.2026 71.1677 42.7123 70.7095C42.2278 70.2458 41.9855 69.6357 41.9855 68.8794V68.2748ZM43.4391 68.9208C43.4391 69.2962 43.5503 69.6053 43.7726 69.8483C44.0006 70.0856 44.2913 70.2043 44.6448 70.2043C45.0096 70.2043 45.2946 70.0912 45.4998 69.8648C45.7108 69.6329 45.8162 69.31 45.8162 68.8959V68.2748C45.8162 67.8884 45.7051 67.5792 45.4827 67.3474C45.2604 67.1155 44.9754 66.9996 44.6277 66.9996C44.2742 66.9996 43.9864 67.1155 43.764 67.3474C43.5474 67.5792 43.4391 67.8994 43.4391 68.308V68.9208ZM39.0783 70.3286L38.0094 69.7323L44.089 60.3084L45.1578 60.9047L39.0783 70.3286Z" fill="#259251"/>
</svg>
