<svg width="25" height="21" viewBox="0 0 25 21" fill="none" xmlns="http://www.w3.org/2000/svg">
<path d="M8 19.95V16.8H4L4.5 17.325L4 19.95H8Z" fill="#FFEEEE"/>
<path d="M8 14.175C6.75579 11.7904 6.31239 10.5062 6.5 8.4L3 7.875L4.5 14.175H8Z" fill="#FFEEEE"/>
<path fill-rule="evenodd" clip-rule="evenodd" d="M13 2.625C13 3.06325 12.6853 3.25 12.5 3.25C12.3147 3.25 12 3.06325 12 2.625C12 2.18675 12.3147 2 12.5 2C12.6853 2 13 2.18675 13 2.625ZM13.6258 4.96941C14.441 4.53697 15 3.64953 15 2.625C15 1.17525 13.8807 0 12.5 0C11.1193 0 10 1.17525 10 2.625C10 3.65981 10.5703 4.55477 11.3988 4.9823C10.046 6.46524 9.05082 7.14127 8.08088 7.33056C7.16058 7.51016 6.05713 7.29001 4.39122 6.44183C4.77053 5.98158 5 5.38143 5 4.725C5 3.27525 3.88071 2.1 2.5 2.1C1.11929 2.1 0 3.27525 0 4.725C0 6.01897 0.891674 7.09427 2.06505 7.31041C2.0615 7.37797 2.06304 7.44734 2.0701 7.51825C2.08816 7.69945 2.10481 7.88195 2.12162 8.06626C2.19362 8.85544 2.26862 9.67754 2.46979 10.5706C2.72383 11.6984 3.17309 12.9329 4.03788 14.5024C4.26485 14.9144 4.70018 15.175 5.17569 15.175H19.83C20.2877 15.175 20.7152 14.9333 20.9493 14.5346C22.2855 12.2598 22.716 10.5083 22.9537 7.49491C22.9588 7.43039 22.9595 7.36751 22.9562 7.3064C24.1191 7.08127 25 6.01116 25 4.725C25 3.27525 23.8807 2.1 22.5 2.1C21.1193 2.1 20 3.27525 20 4.725C20 5.3968 20.2403 6.00965 20.6357 6.47394C18.9957 7.37978 17.8969 7.53089 16.9784 7.30462C15.9775 7.05807 14.9748 6.31942 13.6258 4.96941ZM12.5318 6.69971C11.2243 8.06816 9.95184 9.00317 8.46397 9.29353C7.10152 9.55942 5.71701 9.25529 4.17794 8.55877C4.23205 9.0866 4.2981 9.58595 4.4209 10.1311C4.61011 10.9711 4.93914 11.9271 5.59458 13.175H19.4232C20.2362 11.7138 20.6121 10.4879 20.8358 8.61729C19.2712 9.35259 17.8721 9.58458 16.5 9.24657C15.0549 8.89058 13.8037 7.93448 12.5318 6.69971ZM20 19V17.75H5V19H20ZM5 15.75C3.89543 15.75 3 16.6454 3 17.75V19C3 20.1046 3.89543 21 5 21H20C21.1046 21 22 20.1046 22 19V17.75C22 16.6454 21.1046 15.75 20 15.75H5ZM22.5 5.35C22.6853 5.35 23 5.16325 23 4.725C23 4.28675 22.6853 4.1 22.5 4.1C22.3147 4.1 22 4.28675 22 4.725C22 5.16325 22.3147 5.35 22.5 5.35ZM3 4.725C3 5.16325 2.68531 5.35 2.5 5.35C2.31469 5.35 2 5.16325 2 4.725C2 4.28675 2.31469 4.1 2.5 4.1C2.68531 4.1 3 4.28675 3 4.725Z" fill="url(#paint0_linear_8083_2528)"/>
<defs>
<linearGradient id="paint0_linear_8083_2528" x1="12.5" y1="0" x2="12.5" y2="21" gradientUnits="userSpaceOnUse">
<stop stop-color="#FF5D5A"/>
<stop offset="1" stop-color="#F2984A"/>
</linearGradient>
</defs>
</svg>
