<svg width="219" height="176" viewBox="0 0 219 176" fill="none" xmlns="http://www.w3.org/2000/svg">
<path d="M153.432 92.5024L176.595 69.3387C179.72 66.2145 179.72 61.1492 176.595 58.025L138.128 19.5577C135.004 16.4335 129.939 16.4335 126.814 19.5577L53.8698 92.5024" fill="#E6E2F0"/>
<path d="M25.0492 100.502C25.0492 96.0842 28.6309 92.5024 33.0492 92.5024H174.252C178.671 92.5024 182.252 96.0842 182.252 100.502V152.624C182.252 157.042 178.671 160.624 174.252 160.624H33.0492C28.6309 160.624 25.0492 157.042 25.0492 152.624V100.502Z" fill="#F6F3FD"/>
<path d="M64.35 160.624L74.8302 171.104L85.3104 160.624" fill="#F6F3FD"/>
<circle cx="80.957" cy="83.8416" r="72.2962" fill="#F6F3FD"/>
<path d="M33.5712 31.6346H33.5687V26.5488H33.5712C34.9649 26.5488 36.098 27.6893 36.098 29.0917H38.6272C38.6272 26.2869 36.3585 24.0059 33.5712 24.0059H33.5687V22.7345H31.0407V24.0059C28.251 24.0059 25.9822 26.2869 25.9822 29.0917C25.9822 31.8953 28.251 34.1763 31.0407 34.1763V39.2621C29.6446 39.2621 28.5115 38.1216 28.5115 36.7192L25.9822 36.7204C25.9822 39.524 28.251 41.805 31.0407 41.805V43.0764H33.5687V41.805H33.5712C36.3585 41.805 38.6272 39.524 38.6272 36.7192C38.6272 33.9143 36.3585 31.6346 33.5712 31.6346ZM28.5115 29.0917C28.5115 27.6893 29.6446 26.5488 31.0407 26.5488V31.6346C29.6459 31.6346 28.5115 30.4929 28.5115 29.0917ZM33.5712 39.2621H33.5687V34.1763H33.5712C34.9649 34.1763 36.098 35.3168 36.098 36.7204C36.098 38.1216 34.9649 39.2621 33.5712 39.2621Z" fill="#259251"/>
<path d="M163.175 83.8417L186.339 60.678C189.463 57.5538 189.463 52.4884 186.339 49.3642L147.871 10.897C144.747 7.77277 139.682 7.77277 136.558 10.897L63.6131 83.8417" fill="#259251"/>
<path d="M87.1936 83.8417C87.1936 77.137 89.7508 70.4323 94.8677 65.3153C105.099 55.084 121.689 55.084 131.92 65.3153C137.037 70.4323 139.595 77.137 139.595 83.8417" fill="#44C277"/>
<path d="M131.281 87.5465C131.281 84.7483 130.191 82.1151 128.21 80.1343C124.254 76.1754 117.348 76.1754 113.394 80.1343L105.982 72.7222C108.028 70.6812 111.348 70.6838 113.394 72.7248L117.096 69.0175C113.014 64.9354 106.364 64.9328 102.277 69.0175L100.425 67.1651L96.7174 70.8725L98.5724 72.7275C96.5917 74.7056 95.5043 77.3361 95.5043 80.137C95.5017 82.9352 96.5943 85.5683 98.575 87.5491C100.553 89.5272 103.186 90.6172 105.985 90.6172C108.783 90.6172 111.413 89.5272 113.391 87.5491L120.804 94.9612C118.757 97.0022 115.438 96.9996 113.391 94.9586L109.689 98.666C111.73 100.707 114.416 101.729 117.099 101.729C119.782 101.729 122.465 100.707 124.508 98.666L126.361 100.518L130.068 96.811L128.213 94.956C130.191 92.9752 131.281 90.3447 131.281 87.5465ZM109.684 83.8417C107.709 85.8199 104.253 85.8199 102.277 83.8417C101.287 82.8513 100.739 81.5361 100.742 80.137C100.742 78.7379 101.287 77.4226 102.275 76.4322L109.684 83.8417ZM117.099 83.8391C119.074 81.861 122.53 81.861 124.506 83.8391C125.496 84.8295 126.041 86.1447 126.041 87.5438C126.041 88.9429 125.496 90.2582 124.508 91.2486L117.099 83.8391Z" fill="#208448"/>
<path d="M155.897 78.392L152.189 74.6847L172.568 54.3059L142.925 24.6652L122.546 45.044L118.839 41.3366L141.07 19.1055C142.094 18.0837 143.753 18.081 144.777 19.1055L178.128 52.4535C178.62 52.9461 178.893 53.6116 178.893 54.3059C178.893 55.0028 178.62 55.6683 178.128 56.1609L155.897 78.392Z" fill="#208448"/>
<path d="M144.841 67.2334L148.546 63.5234L152.256 67.2282L148.551 70.9381L144.841 67.2334Z" fill="#44C277"/>
<path d="M152.176 59.8951L155.881 56.1898L159.588 59.897L155.883 63.6023L152.176 59.8951Z" fill="#44C277"/>
<path d="M126.313 48.7463L130.023 45.0416L133.726 48.7497L130.016 52.4545L126.313 48.7463Z" fill="#44C277"/>
<path d="M133.653 41.3635L137.359 37.6582L141.066 41.3654L137.36 45.0707L133.653 41.3635Z" fill="#44C277"/>
<path d="M34.7925 91.8417C34.7925 87.4234 38.3743 83.8417 42.7925 83.8417H183.996C188.414 83.8417 191.996 87.4234 191.996 91.8417V143.963C191.996 148.381 188.414 151.963 183.996 151.963H42.7925C38.3743 151.963 34.7925 148.381 34.7925 143.963V91.8417Z" fill="#2AC769"/>
<path d="M113.394 144.103C127.864 144.103 139.595 132.372 139.595 117.902C139.595 103.432 127.864 91.7018 113.394 91.7018C98.924 91.7018 87.1936 103.432 87.1936 117.902C87.1936 132.372 98.924 144.103 113.394 144.103Z" fill="white"/>
<path d="M74.0933 151.963L84.5735 162.443L95.0537 151.963" fill="#259251"/>
<path d="M116.014 115.282H116.009V104.802H116.014C118.901 104.802 121.249 107.152 121.249 110.042H126.489C126.489 104.262 121.789 99.5619 116.014 99.5619H116.009V96.9419H110.771V99.5619C104.992 99.5619 100.291 104.262 100.291 110.042C100.291 115.819 104.992 120.52 110.771 120.52V131C107.879 131 105.531 128.65 105.531 125.76L100.291 125.762C100.291 131.54 104.992 136.24 110.771 136.24V138.86H116.009V136.24H116.014C121.789 136.24 126.489 131.54 126.489 125.76C126.489 119.98 121.789 115.282 116.014 115.282ZM105.531 110.042C105.531 107.152 107.879 104.802 110.771 104.802V115.282C107.881 115.282 105.531 112.929 105.531 110.042ZM116.014 131H116.009V120.52H116.014C118.901 120.52 121.249 122.87 121.249 125.762C121.249 128.65 118.901 131 116.014 131Z" fill="#259251"/>
<path d="M181.51 144.1H150.072V138.86H178.89V96.9419H150.072V91.7018H181.51C182.959 91.7018 184.13 92.8729 184.13 94.3218V141.483C184.13 142.929 182.959 144.1 181.51 144.1Z" fill="#259251"/>
<path d="M76.7108 144.103H45.2728C43.8239 144.103 42.6527 142.929 42.6527 141.483V94.3218C42.6527 92.8729 43.8239 91.7018 45.2701 91.7018H76.7108L76.7134 96.9419H47.8928V138.863H76.7108V144.103Z" fill="#259251"/>
<path d="M150.072 128.383H155.31V133.623H150.072V128.383Z" fill="white"/>
<path d="M160.552 128.383H165.79V133.623H160.552V128.383Z" fill="white"/>
<path d="M150.072 102.182H155.31V107.422H150.072V102.182Z" fill="white"/>
<path d="M160.552 102.182H165.79V107.422H160.552V102.182Z" fill="white"/>
<path d="M60.993 102.182H66.2305V107.422H60.993V102.182Z" fill="white"/>
<path d="M71.4733 102.182H76.7108V107.422H71.4733V102.182Z" fill="white"/>
<path d="M60.993 128.383H66.2305V133.623H60.993V128.383Z" fill="white"/>
<path d="M71.4733 128.383H76.7108V133.623H71.4733V128.383Z" fill="white"/>
<path d="M115.823 9.55358H76.0991C74.9404 9.55358 74.0301 8.64264 74.0301 7.48327C74.0301 6.3239 74.9404 5.41296 76.0991 5.41296H115.823C116.982 5.41296 117.892 6.3239 117.892 7.48327C117.892 8.64264 116.982 9.55358 115.823 9.55358Z" fill="#212025"/>
<path opacity="0.31" d="M56.8041 30.3126H58.4044C58.6954 30.3126 58.9137 30.6038 58.9137 30.8222V32.4238C58.9137 32.7149 58.6954 32.9333 58.4044 32.9333H56.8041C56.5131 32.9333 56.2949 32.6422 56.2949 32.4238V30.8222C56.2949 30.531 56.5131 30.3126 56.8041 30.3126Z" fill="white"/>
<path opacity="0.31" d="M67.352 30.3126H68.9523C69.2433 30.3126 69.4615 30.6038 69.4615 30.8222V32.4238C69.4615 32.7149 69.2433 32.9333 68.9523 32.9333H67.352C67.061 32.9333 66.8428 32.6422 66.8428 32.4238V30.8222C66.8428 30.531 67.061 30.3126 67.352 30.3126Z" fill="white"/>
<path opacity="0.31" d="M77.827 30.3126H79.4274C79.7184 30.3126 79.9367 30.6038 79.9367 30.8222V32.4238C79.9367 32.7149 79.7184 32.9333 79.4274 32.9333H77.827C77.536 32.9333 77.3178 32.6422 77.3178 32.4238V30.8222C77.3178 30.531 77.536 30.3126 77.827 30.3126Z" fill="white"/>
<path opacity="0.31" d="M88.3748 30.3126H89.9752C90.2662 30.3126 90.4845 30.6038 90.4845 30.8222V32.4238C90.4845 32.7149 90.2662 32.9333 89.9752 32.9333H88.3748C88.0839 32.9333 87.8657 32.6422 87.8657 32.4238V30.8222C87.8657 30.531 88.0839 30.3126 88.3748 30.3126Z" fill="white"/>
<path opacity="0.31" d="M98.9225 30.3126H100.523C100.814 30.3126 101.032 30.6038 101.032 30.8222V32.4238C101.032 32.7149 100.814 32.9333 100.523 32.9333H98.9225C98.6315 32.9333 98.4133 32.6422 98.4133 32.4238V30.8222C98.3405 30.531 98.5587 30.3126 98.9225 30.3126Z" fill="white"/>
<path opacity="0.31" d="M109.398 30.3126H110.998C111.289 30.3126 111.507 30.6038 111.507 30.8222V32.4238C111.507 32.7149 111.289 32.9333 110.998 32.9333H109.398C109.107 32.9333 108.888 32.6422 108.888 32.4238V30.8222C108.888 30.531 109.107 30.3126 109.398 30.3126Z" fill="white"/>
<path opacity="0.31" d="M56.8041 40.7946H58.4044C58.6954 40.7946 58.9137 41.0857 58.9137 41.3041V42.9056C58.9137 43.1967 58.6954 43.4151 58.4044 43.4151H56.8041C56.5131 43.4151 56.2949 43.1239 56.2949 42.9056V41.3041C56.2949 41.0857 56.5131 40.7946 56.8041 40.7946Z" fill="white"/>
<path opacity="0.31" d="M67.352 40.7946H68.9523C69.2433 40.7946 69.4615 41.0857 69.4615 41.3041V42.9056C69.4615 43.1967 69.2433 43.4151 68.9523 43.4151H67.352C67.061 43.4151 66.8428 43.1239 66.8428 42.9056V41.3041C66.8428 41.0857 67.061 40.7946 67.352 40.7946Z" fill="white"/>
<path opacity="0.31" d="M77.827 40.7946H79.4274C79.7184 40.7946 79.9367 41.0857 79.9367 41.3041V42.9056C79.9367 43.1967 79.7184 43.4151 79.4274 43.4151H77.827C77.536 43.4151 77.3178 43.1239 77.3178 42.9056V41.3041C77.3178 41.0857 77.536 40.7946 77.827 40.7946Z" fill="white"/>
<path opacity="0.31" d="M88.3748 40.7946H89.9752C90.2662 40.7946 90.4845 41.0857 90.4845 41.3041V42.9056C90.4845 43.1967 90.2662 43.4151 89.9752 43.4151H88.3748C88.0839 43.4151 87.8657 43.1239 87.8657 42.9056V41.3041C87.8657 41.0857 88.0839 40.7946 88.3748 40.7946Z" fill="white"/>
<path opacity="0.31" d="M98.9225 40.7946H100.523C100.814 40.7946 101.032 41.0857 101.032 41.3041V42.9056C101.032 43.1967 100.814 43.4151 100.523 43.4151H98.9225C98.6315 43.4151 98.4133 43.1239 98.4133 42.9056V41.3041C98.3405 41.0857 98.5587 40.7946 98.9225 40.7946Z" fill="white"/>
<path opacity="0.31" d="M56.8041 51.3494H58.4044C58.6954 51.3494 58.9137 51.6405 58.9137 51.8589V53.4604C58.9137 53.7516 58.6954 53.97 58.4044 53.97H56.8041C56.5131 53.97 56.2949 53.6788 56.2949 53.4604V51.8589C56.2949 51.5677 56.5131 51.3494 56.8041 51.3494Z" fill="white"/>
<path opacity="0.31" d="M67.352 51.3494H68.9523C69.2433 51.3494 69.4615 51.6405 69.4615 51.8589V53.4604C69.4615 53.7516 69.2433 53.97 68.9523 53.97H67.352C67.061 53.97 66.8428 53.6788 66.8428 53.4604V51.8589C66.8428 51.5677 67.061 51.3494 67.352 51.3494Z" fill="white"/>
<path opacity="0.31" d="M77.827 51.3494H79.4274C79.7184 51.3494 79.9367 51.6405 79.9367 51.8589V53.4604C79.9367 53.7516 79.7184 53.97 79.4274 53.97H77.827C77.536 53.97 77.3178 53.6788 77.3178 53.4604V51.8589C77.3178 51.5677 77.536 51.3494 77.827 51.3494Z" fill="white"/>
<path opacity="0.31" d="M88.3748 51.3494H89.9752C90.2662 51.3494 90.4845 51.6405 90.4845 51.8589V53.4604C90.4845 53.7516 90.2662 53.97 89.9752 53.97H88.3748C88.0839 53.97 87.8657 53.6788 87.8657 53.4604V51.8589C87.8657 51.5677 88.0839 51.3494 88.3748 51.3494Z" fill="white"/>
<path opacity="0.31" d="M56.8041 61.8314H58.4044C58.6954 61.8314 58.9137 62.1226 58.9137 62.341V63.9424C58.9137 64.2336 58.6954 64.452 58.4044 64.452H56.8041C56.5131 64.452 56.2949 64.1608 56.2949 63.9424V62.341C56.2949 62.1226 56.5131 61.8314 56.8041 61.8314Z" fill="white"/>
<path opacity="0.31" d="M67.352 61.8314H68.9523C69.2433 61.8314 69.4615 62.1226 69.4615 62.341V63.9424C69.4615 64.2336 69.2433 64.452 68.9523 64.452H67.352C67.061 64.452 66.8428 64.1608 66.8428 63.9424V62.341C66.8428 62.1226 67.061 61.8314 67.352 61.8314Z" fill="white"/>
<path opacity="0.31" d="M77.827 61.8314H79.4274C79.7184 61.8314 79.9367 62.1226 79.9367 62.341V63.9424C79.9367 64.2336 79.7184 64.452 79.4274 64.452H77.827C77.536 64.452 77.3178 64.1608 77.3178 63.9424V62.341C77.3178 62.1226 77.536 61.8314 77.827 61.8314Z" fill="white"/>
<path opacity="0.31" d="M56.8041 72.3862H58.4044C58.6954 72.3862 58.9137 72.6774 58.9137 72.8958V74.4973C58.9137 74.7884 58.6954 75.0068 58.4044 75.0068H56.8041C56.5131 75.0068 56.2949 74.7156 56.2949 74.4973V72.8958C56.2949 72.6046 56.5131 72.3862 56.8041 72.3862Z" fill="white"/>
<path opacity="0.31" d="M67.352 72.3862H68.9523C69.2433 72.3862 69.4615 72.6774 69.4615 72.8958V74.4973C69.4615 74.7884 69.2433 75.0068 68.9523 75.0068H67.352C67.061 75.0068 66.8428 74.7156 66.8428 74.4973V72.8958C66.8428 72.6046 67.061 72.3862 67.352 72.3862Z" fill="white"/>
<path d="M102.582 18.6632H75.6854C74.5267 18.6632 73.6164 17.7522 73.6164 16.5928C73.6164 15.4334 74.5267 14.5225 75.6854 14.5225H102.582C103.741 14.5225 104.651 15.4334 104.651 16.5928C104.651 17.7522 103.741 18.6632 102.582 18.6632Z" fill="#259251"/>
<g clip-path="url(#clip0_8083_884)">
<path d="M218.453 154.432V161.317C218.453 163.656 212.217 165.605 204.552 165.605C196.887 165.605 190.781 163.721 190.781 161.382V160.603L190.651 155.147H190.716C191.756 157.16 197.472 158.719 204.357 158.719C211.243 158.719 218.323 156.771 218.323 154.432H218.453V154.432Z" fill="#E2A63B"/>
<path d="M204.163 128.839V135.659H204.033C204.033 138.063 197.602 139.946 190.002 139.946C187.079 140.011 184.091 139.687 181.233 138.972L181.103 139.102C179.674 137.933 178.05 137.023 176.296 136.439V136.309L176.101 129.098C176.556 131.307 182.597 133.061 189.937 133.061C197.277 133.061 204.033 131.177 204.033 128.839H204.163Z" fill="#F4B844"/>
<path d="M204.163 128.969C204.163 131.307 197.732 133.191 190.067 133.191C182.402 133.191 176.621 131.437 176.166 129.228C176.166 129.164 176.101 129.034 176.101 128.969C176.101 126.63 182.337 124.681 190.067 124.681C197.797 124.616 204.163 126.565 204.163 128.969Z" fill="#FEDB41"/>
<path d="M190.716 155.146L190.651 153.717L190.521 147.871C190.976 150.08 197.017 151.834 204.357 151.834C211.698 151.834 218.193 149.95 218.388 147.676H218.453V154.432H218.323C218.323 156.77 212.022 158.719 204.357 158.719C196.692 158.719 191.756 157.16 190.716 155.146Z" fill="#F4B844"/>
<path d="M181.427 159.499C183.181 157.875 184.546 155.796 185.26 153.523H185.585C187.014 153.653 188.443 153.717 190.002 153.717H190.651V155.146L190.781 160.603H190.067C187.209 160.668 184.415 160.343 181.622 159.694L181.427 159.499Z" fill="#E2A63B"/>
<path d="M190.716 147.352V147.676L190.846 153.717H190.197C188.573 153.717 187.079 153.652 185.65 153.523H185.325C185.78 152.159 185.974 150.729 185.974 149.3C185.974 148.326 185.844 147.417 185.65 146.507H185.974C187.338 146.637 188.703 146.702 190.197 146.702L190.781 147.027C190.716 147.157 190.716 147.287 190.716 147.352Z" fill="#F4B844"/>
<path d="M181.233 138.972C184.091 139.687 187.079 140.011 190.002 139.946C197.602 139.946 204.033 138.063 204.033 135.659H204.163V143.324C197.082 143.324 191.301 145.013 190.587 147.157L190.002 146.832C188.573 146.832 187.209 146.767 185.91 146.637H185.585C185 143.649 183.441 140.986 181.103 139.037L181.233 138.972Z" fill="#E2A63B"/>
<path d="M185.715 146.637C185.065 143.649 183.441 140.921 181.103 138.907C179.674 137.608 177.985 136.699 176.166 136.179C174.867 135.724 173.438 135.529 172.074 135.529C164.344 135.464 158.043 141.635 157.978 149.365C157.913 157.095 164.084 163.396 171.814 163.461C175.386 163.461 178.764 162.162 181.427 159.758C183.246 158.069 184.61 155.926 185.325 153.587C185.78 152.223 185.974 150.859 185.974 149.43C185.975 148.521 185.715 147.546 185.715 146.637Z" fill="#FEDB41"/>
<path d="M218.388 147.546V147.676C218.193 149.95 211.893 151.834 204.357 151.834C196.822 151.834 190.976 150.08 190.521 147.871V147.546C190.521 147.417 190.521 147.287 190.586 147.157C191.301 145.013 197.082 143.324 204.163 143.324H204.357C212.022 143.324 218.388 145.208 218.388 147.546Z" fill="#FEDB41"/>
<path d="M172.074 147.741C170.904 147.741 169.93 146.767 169.93 145.598C169.93 144.428 170.904 143.454 172.074 143.454C173.243 143.454 174.217 144.428 174.217 145.598C174.217 146.312 174.802 146.897 175.516 146.897C176.231 146.897 176.816 146.312 176.816 145.598C176.816 143.519 175.386 141.635 173.373 141.051V140.531C173.373 139.816 172.788 139.232 172.074 139.232C171.359 139.232 170.774 139.816 170.774 140.531V141.051C168.696 141.57 167.267 143.454 167.332 145.598C167.332 148.196 169.475 150.339 172.074 150.339C173.243 150.339 174.217 151.314 174.217 152.483C174.217 153.652 173.243 154.627 172.074 154.627C170.904 154.627 169.93 153.652 169.93 152.483C169.93 151.769 169.345 151.184 168.631 151.184C167.916 151.184 167.332 151.769 167.332 152.483C167.332 154.627 168.761 156.445 170.774 157.03V158.069C170.774 158.784 171.359 159.368 172.074 159.368C172.788 159.368 173.373 158.784 173.373 158.069V157.03C175.906 156.316 177.335 153.652 176.556 151.119C175.971 149.17 174.152 147.741 172.074 147.741Z" fill="#E2A63B"/>
</g>
<path d="M41.793 64.7659H2.06896C0.910343 64.7659 0 63.8549 0 62.6956C0 61.5362 0.910343 60.6252 2.06896 60.6252H41.793C42.9516 60.6252 43.862 61.5362 43.862 62.6956C43.862 63.8549 42.9516 64.7659 41.793 64.7659Z" fill="#212025"/>
<path d="M41.9566 73.8754H15.0601C13.9015 73.8754 12.9911 72.9645 12.9911 71.8051C12.9911 70.6457 13.9015 69.7347 15.0601 69.7347H41.9566C43.1153 69.7347 44.0256 70.6457 44.0256 71.8051C44.0256 72.9645 43.1153 73.8754 41.9566 73.8754Z" fill="#259251"/>
<defs>
<clipPath id="clip0_8083_884">
<rect width="60.4759" height="60.4759" fill="white" transform="translate(157.977 114.904)"/>
</clipPath>
</defs>
</svg>
