<svg width="343" height="68" viewBox="0 0 343 68" fill="none" xmlns="http://www.w3.org/2000/svg">
<rect width="343" height="68" fill="#2AC769"/>
<path fill-rule="evenodd" clip-rule="evenodd" d="M342.998 56.0043C336.313 61.025 328.004 64 319 64C296.909 64 279 46.0914 279 24C279 14.9952 281.976 6.68528 286.997 0H319C305.745 0 295 10.7452 295 24C295 37.2548 305.745 48 319 48C332.155 48 342.838 37.4163 342.998 24.2996V56.0043ZM342.998 23.7004C342.838 10.5837 332.155 0 319 0H334.998C339.416 0 342.998 3.58172 342.998 8V23.7004Z" fill="#6FCF97"/>
<path fill-rule="evenodd" clip-rule="evenodd" d="M0 25.0031C0.16642 25.001 0.333088 25 0.5 25C22.3152 25 40 42.6848 40 64.5C40 65.6795 39.9483 66.8468 39.8471 68H23.9434C24.1124 66.8579 24.2 65.6892 24.2 64.5C24.2 51.4109 13.5891 40.8 0.5 40.8C0.332924 40.8 0.166252 40.8017 0 40.8052V25.0031Z" fill="#6FCF97"/>
</svg>
