<svg width="30" height="30" viewBox="0 0 30 30" fill="none" xmlns="http://www.w3.org/2000/svg">
<path d="M18.4634 8.677C18.4633 7.99203 18.2601 7.32247 17.8795 6.75299C17.4988 6.18351 16.9579 5.73967 16.3251 5.47761C15.6922 5.21555 14.9958 5.14703 14.3241 5.28072C13.6523 5.4144 13.0352 5.74429 12.5509 6.22867C12.0666 6.71305 11.7368 7.33016 11.6032 8.00197C11.4696 8.67379 11.5382 9.37013 11.8003 10.0029C12.0625 10.6358 12.5064 11.1766 13.0759 11.5572C13.6455 11.9377 14.315 12.1408 15 12.1408C15.9183 12.1397 16.7986 11.7744 17.4479 11.125C18.0972 10.4757 18.4624 9.59528 18.4634 8.677ZM12.357 8.677C12.3571 8.15427 12.5121 7.64332 12.8026 7.20873C13.0931 6.77415 13.5059 6.43545 13.9889 6.23548C14.4718 6.03551 15.0033 5.98323 15.5159 6.08527C16.0286 6.1873 16.4995 6.43906 16.8691 6.80872C17.2387 7.17837 17.4904 7.64932 17.5923 8.16201C17.6942 8.6747 17.6419 9.2061 17.4418 9.68903C17.2418 10.172 16.903 10.5847 16.4684 10.8751C16.0337 11.1655 15.5227 11.3205 15 11.3205C14.2992 11.3197 13.6273 11.0409 13.1318 10.5453C12.6363 10.0497 12.3576 9.37781 12.357 8.677Z" fill="white"/>
<path d="M28.905 28.3758L25.5614 19.6101C25.5318 19.5325 25.4793 19.4657 25.4108 19.4186C25.3424 19.3715 25.2613 19.3463 25.1782 19.3462H18.8501C18.8888 19.2832 18.9272 19.222 18.9659 19.1587C21.4008 15.1275 22.6261 11.6011 22.6085 8.67889C22.6089 6.66092 21.8076 4.72547 20.3809 3.29831C18.9542 1.87115 17.019 1.06919 15.0011 1.06885C12.9831 1.06851 11.0477 1.86981 9.62049 3.29649C8.19333 4.72316 7.39137 6.65834 7.39103 8.67631C7.37345 11.6011 8.59876 15.1279 11.0337 19.1587C11.0724 19.2227 11.1108 19.2839 11.1495 19.3462H4.82134C4.73826 19.3463 4.65715 19.3715 4.58873 19.4186C4.5203 19.4657 4.46779 19.5325 4.43814 19.6101L1.09501 28.3758C1.07119 28.4379 1.06285 28.5048 1.07071 28.5709C1.07857 28.6369 1.10239 28.7001 1.14012 28.7549C1.17785 28.8096 1.22835 28.8544 1.28725 28.8853C1.34616 28.9162 1.4117 28.9323 1.47822 28.9322H28.5218C28.5883 28.9323 28.6539 28.9162 28.7128 28.8853C28.7717 28.8544 28.8222 28.8096 28.8599 28.7549C28.8976 28.7001 28.9215 28.6369 28.9293 28.5709C28.9372 28.5048 28.9288 28.4379 28.905 28.3758ZM8.21158 8.67701C8.21173 7.78554 8.38747 6.90283 8.72876 6.07928C9.07006 5.25573 9.57022 4.50746 10.2007 3.8772C10.8312 3.24695 11.5796 2.74705 12.4033 2.40604C13.2269 2.06503 14.1097 1.88959 15.0012 1.88975C15.8927 1.8899 16.7754 2.06564 17.5989 2.40693C18.4225 2.74823 19.1707 3.24839 19.801 3.87886C20.4312 4.50934 20.9312 5.25777 21.2722 6.08144C21.6132 6.90511 21.7886 7.78788 21.7884 8.67935C21.8236 14.5054 16.3767 21.6912 15 23.4143C13.6233 21.6919 8.17619 14.508 8.21158 8.67701ZM14.6876 24.3283C14.7261 24.3736 14.774 24.41 14.8279 24.4349C14.8819 24.4598 14.9406 24.4727 15 24.4727C15.0594 24.4727 15.1182 24.4598 15.1721 24.4349C15.226 24.41 15.2739 24.3736 15.3124 24.3283C16.4014 23.0017 17.411 21.6119 18.3359 20.1661H24.8953L25.4203 21.543L12.6021 26.1019L8.03322 20.1654H11.6637C12.5887 21.6114 13.5984 23.0015 14.6876 24.3283ZM12.5878 26.9768H12.5902L20.2371 24.258L23.2031 28.1119H9.39845L12.5878 26.9768ZM5.10423 20.1654H6.99798L11.7891 26.3908L6.95087 28.1116H2.07353L5.10423 20.1654ZM24.2393 28.1119L21.0497 23.9676L25.7138 22.309L27.927 28.1119H24.2393Z" fill="white"/>
</svg>
