<svg width="12" height="12" viewBox="0 0 12 12" fill="none" xmlns="http://www.w3.org/2000/svg">
<g opacity="0.8">
<path opacity="0.8" d="M4.66965 3.16406C4.66965 1.96587 5.45157 0.950484 6.53294 0.599836C6.27086 0.514875 5.99129 0.46875 5.7009 0.46875C4.21231 0.46875 3.00558 1.67548 3.00558 3.16406C3.00558 4.65265 4.21231 5.85938 5.7009 5.85938C5.99129 5.85938 6.27086 5.81325 6.53294 5.72829C5.45157 5.37764 4.66965 4.36226 4.66965 3.16406Z" fill="#FFE5E5"/>
</g>
<path d="M10.1484 12C9.88955 12 9.67969 11.7901 9.67969 11.5312C9.67969 9.69612 8.1867 8.20312 6.35156 8.20312H5.64844C3.8133 8.20312 2.32031 9.69612 2.32031 11.5312C2.32031 11.7901 2.11045 12 1.85156 12C1.59267 12 1.38281 11.7901 1.38281 11.5312C1.38281 9.17918 3.29637 7.26562 5.64844 7.26562H6.35156C8.70363 7.26562 10.6172 9.17918 10.6172 11.5312C10.6172 11.7901 10.4073 12 10.1484 12Z" fill="#F2994A"/>
<path d="M5.95312 6.32812C4.20846 6.32812 2.78906 4.90873 2.78906 3.16406C2.78906 1.4194 4.20846 0 5.95312 0C7.69779 0 9.11719 1.4194 9.11719 3.16406C9.11719 4.90873 7.69779 6.32812 5.95312 6.32812ZM5.95312 0.9375C4.7254 0.9375 3.72656 1.93634 3.72656 3.16406C3.72656 4.39179 4.7254 5.39062 5.95312 5.39062C7.18085 5.39062 8.17969 4.39179 8.17969 3.16406C8.17969 1.93634 7.18085 0.9375 5.95312 0.9375Z" fill="#FF5B5B"/>
</svg>
