<svg width="24" height="24" viewBox="0 0 24 24" fill="none" xmlns="http://www.w3.org/2000/svg">
<path fill-rule="evenodd" clip-rule="evenodd" d="M4.02437 5.64697C2.9793 5.64697 2.11042 6.45159 2.03026 7.49358L1.00901 20.7698C0.874985 22.5122 2.25264 23.9999 4.00017 23.9999H20.1091C21.19 23.9999 22.1294 23.4308 22.6571 22.5843L7.89368 21.9937C6.79721 22.2598 5.26681 20.7727 5.51597 19.0216L6.70482 6.53861L22.0047 7.08504C21.7605 6.24857 20.9886 5.64697 20.085 5.64697H4.02437Z" fill="#FCE4CF"/>
<path fill-rule="evenodd" clip-rule="evenodd" d="M12.0547 0C15.1734 0 17.7017 2.52827 17.7017 5.64706H20.085C21.13 5.64706 21.9989 6.45167 22.0791 7.49367L23.1003 20.7699C23.2343 22.5123 21.8567 24 20.1091 24H4.00017C2.25264 24 0.874985 22.5123 1.00901 20.7699L2.03026 7.49367C2.11042 6.45167 2.9793 5.64706 4.02437 5.64706H6.40761C6.40761 2.52827 8.93588 0 12.0547 0ZM8.40761 5.64706H15.7017C15.7017 3.63284 14.0689 2 12.0547 2C10.0404 2 8.40761 3.63284 8.40761 5.64706ZM3.00312 20.9233L4.02437 7.64706H20.085L21.1062 20.9233C21.1509 21.5041 20.6917 22 20.1091 22H4.00017C3.41767 22 2.95845 21.5041 3.00312 20.9233Z" fill="url(#paint0_linear_8083_2490)"/>
<defs>
<linearGradient id="paint0_linear_8083_2490" x1="12.0547" y1="0" x2="12.0547" y2="24" gradientUnits="userSpaceOnUse">
<stop stop-color="#FF5B5B"/>
<stop offset="1" stop-color="#F2994A"/>
</linearGradient>
</defs>
</svg>
