<svg width="23" height="24" viewBox="0 0 23 24" fill="none" xmlns="http://www.w3.org/2000/svg">
<path fill-rule="evenodd" clip-rule="evenodd" d="M12.7186 3.84124C12.7186 4.85813 11.8943 5.68248 10.8774 5.68248C9.86048 5.68248 9.03613 4.85813 9.03613 3.84124C9.03613 2.82435 9.86048 2 10.8774 2C11.8943 2 12.7186 2.82435 12.7186 3.84124ZM14.7186 3.84124C14.7186 5.9627 12.9988 7.68248 10.8774 7.68248C8.75591 7.68248 7.03613 5.9627 7.03613 3.84124C7.03613 1.71978 8.75591 0 10.8774 0C12.9988 0 14.7186 1.71978 14.7186 3.84124ZM18.8319 4.38501C19.192 4.42531 19.5021 4.65726 19.6426 4.99131L22.2255 11.1363C22.361 11.4587 22.3183 11.8284 22.1129 12.1114C21.9074 12.3943 21.5691 12.5494 21.2206 12.5204L15.1842 12.0173L12.2733 15.8664L17.2769 22.0602C17.624 22.4898 17.557 23.1194 17.1274 23.4665C16.6978 23.8136 16.0682 23.7466 15.7211 23.317L11.0302 17.5102L6.42519 23.5993C6.09206 24.0398 5.46491 24.1269 5.02441 23.7937C4.58391 23.4606 4.49687 22.8335 4.83 22.393L9.7351 15.907L6.59433 12.0191L1.09055 12.5194C0.758192 12.5496 0.432668 12.4121 0.222711 12.1526C0.0127544 11.8932 -0.0539609 11.5462 0.0448502 11.2274L1.91831 5.1837C2.02931 4.82563 2.33125 4.55971 2.70048 4.49486C3.06971 4.43001 3.4442 4.57712 3.67057 4.87594L7.82393 10.3585L10.9782 14.2632L13.913 10.3825L17.9073 4.79712C18.118 4.50237 18.4718 4.34471 18.8319 4.38501Z" fill="url(#paint0_linear_8083_2509)"/>
<defs>
<linearGradient id="paint0_linear_8083_2509" x1="11.1518" y1="0" x2="11.1518" y2="23.9962" gradientUnits="userSpaceOnUse">
<stop stop-color="#FB7055"/>
<stop offset="1" stop-color="#F4914C"/>
</linearGradient>
</defs>
</svg>
