<svg width="24" height="22" viewBox="0 0 24 22" fill="none" xmlns="http://www.w3.org/2000/svg">
<path fill-rule="evenodd" clip-rule="evenodd" d="M12.4789 0.122105C12.169 -0.0468999 11.793 -0.0400604 11.4895 0.140101C11.186 0.320263 11 0.647063 11 1V6.5V9.02225C4.84047 9.2975 0 12.0926 0 15.5C0 19.0899 5.37258 22 12 22C18.6274 22 24 19.0899 24 15.5C24 12.0926 19.1595 9.2975 13 9.02225V7.14391L17.9138 4.91037C18.2588 4.75353 18.4856 4.41511 18.4993 4.03635C18.5131 3.65759 18.3116 3.30359 17.9789 3.1221L12.4789 0.122105ZM11 11.0244C8.37255 11.1534 6.09053 11.7831 4.46729 12.6624C2.56255 13.6941 2 14.7872 2 15.5C2 16.2128 2.56255 17.3059 4.46729 18.3376C6.29326 19.3267 8.95283 20 12 20C15.0472 20 17.7067 19.3267 19.5327 18.3376C21.4374 17.3059 22 16.2128 22 15.5C22 14.7872 21.4374 13.6941 19.5327 12.6624C17.9095 11.7831 15.6275 11.1534 13 11.0244V12.0915C16.503 12.3242 19.1998 13.7615 19.1998 15.4998C19.1998 17.4003 15.9763 18.9409 11.9998 18.9409C8.02335 18.9409 4.7998 17.4003 4.7998 15.4998C4.7998 13.7614 7.49677 12.3241 11 12.0915V11.0244ZM11 14.0968C9.67779 14.1985 8.55823 14.495 7.77108 14.8712C7.18635 15.1507 6.94703 15.3805 6.85204 15.4999C6.94703 15.6193 7.18635 15.8491 7.77108 16.1286C8.74986 16.5964 10.2426 16.9409 11.9998 16.9409C13.757 16.9409 15.2498 16.5964 16.2285 16.1286C16.8132 15.8491 17.0526 15.6193 17.1476 15.4999C17.0526 15.3805 16.8132 15.1507 16.2285 14.8712C15.4415 14.495 14.322 14.1985 13 14.0968V15C13 15.5523 12.5523 16 12 16C11.4477 16 11 15.5523 11 15V14.0968ZM15.2625 3.91861L13 4.947V2.68454L15.2625 3.91861Z" fill="url(#paint0_linear_8083_2481)"/>
<defs>
<linearGradient id="paint0_linear_8083_2481" x1="12" y1="0" x2="12" y2="22" gradientUnits="userSpaceOnUse">
<stop stop-color="#FF5F5A"/>
<stop offset="1" stop-color="#F3954B"/>
</linearGradient>
</defs>
</svg>
